<?xml version="1.0" encoding="UTF-8" standalone="no"?>
<svg
   width="80"
   height="80"
   viewBox="0 0 80 80"
   fill="none"
   version="1.1"
   id="svg2"
   sodipodi:docname="culinary.svg"
   inkscape:version="1.3.2 (091e20e, 2023-11-25, custom)"
   inkscape:export-filename="culinary.png"
   inkscape:export-xdpi="96"
   inkscape:export-ydpi="96"
   xmlns:inkscape="http://www.inkscape.org/namespaces/inkscape"
   xmlns:sodipodi="http://sodipodi.sourceforge.net/DTD/sodipodi-0.dtd"
   xmlns="http://www.w3.org/2000/svg"
   xmlns:svg="http://www.w3.org/2000/svg">
  <defs
     id="defs2" />
  <sodipodi:namedview
     id="namedview2"
     pagecolor="#ffffff"
     bordercolor="#000000"
     borderopacity="0.25"
     inkscape:showpageshadow="2"
     inkscape:pageopacity="0.0"
     inkscape:pagecheckerboard="0"
     inkscape:deskcolor="#d1d1d1"
     inkscape:zoom="14.6625"
     inkscape:cx="40"
     inkscape:cy="40"
     inkscape:window-width="2560"
     inkscape:window-height="1369"
     inkscape:window-x="2728"
     inkscape:window-y="-8"
     inkscape:window-maximized="1"
     inkscape:current-layer="svg2" />
  <path
     d="M37.5 9.50341L36.3778 8.10151C35.8216 7.40663 35.5815 6.46423 36.1175 5.75362C36.7613 4.90011 38.0367 3.9353 40.5 4.00341C42.3218 4.05378 43.5474 4.63374 44.3292 5.2225C45.1927 5.87287 45.1292 7.06084 44.5293 7.96018L43.5 9.50341M9.5 59.1716L8.57422 58.5544C7.69102 57.9656 6.5017 58.1693 5.86482 59.0185L3.74464 61.8454C3.06472 62.7519 3.27307 64.0417 4.20384 64.6881L18.8549 74.8624C19.7631 75.4931 21.0107 75.2672 21.6401 74.3581L23.8414 71.1784C24.478 70.2589 24.2369 68.9962 23.3064 68.3758L22.5 67.8382M9.5 59.1716C9.5 59.1716 13.0649 53.8333 16 51.0049C17.2966 49.7554 20 48.0034 20 48.0034M9.5 59.1716L22.5 67.8382M20 48.0034H3C1.89543 48.0034 1 47.108 1 46.0034V44.0034C1 42.8988 1.89543 42.0034 3 42.0034H8H77C78.1046 42.0034 79 42.8988 79 44.0034V46.0034C79 47.108 78.1046 48.0034 77 48.0034H65M20 48.0034H27.5M27.5 48.0034L30.7159 49.1526C33.1716 50.0302 35.8464 50.0839 38.3353 49.3056L42.5 48.0034M27.5 48.0034H42.5M42.5 48.0034H45.5M45.5 48.0034C45.5 48.0034 47.4312 48.5183 48 49.5049C48.5852 50.5199 47.3284 51.6765 46.5 52.5049C45.0752 53.9297 44.1579 54.8469 43.7482 55.2567C43.5837 55.4212 43.1946 55.645 43.4075 55.7386C43.6652 55.8519 44.6943 55.8913 48 55.5049C49.6523 55.3118 51.8467 54.6009 53.5193 53.9863C55.1821 53.3753 56.7008 52.4441 58.084 51.3372L62.25 48.0034M45.5 48.0034H62.25M62.25 48.0034H65M65 48.0034C65 48.0034 66.1924 48.7352 66.5 49.5049C66.7898 50.2302 67.0523 50.9526 66.5 51.5049C61.5 56.5049 61 57.5049 56 60.5049C52.4562 62.6312 46.09 63.8911 45.5384 63.9975C45.5098 64.0031 45.4869 64.0068 45.4581 64.0108C45.0865 64.063 42.3262 64.444 40.5 64.5049C36.5775 64.6356 33.5 63.5049 30.5 63.5049C28.2737 63.5049 26.815 63.7156 25 65.0049C23.797 65.8594 22.5 67.8382 22.5 67.8382"
     stroke="black"
     stroke-linejoin="round"
     id="path1"
     style="stroke:#803820;stroke-opacity:1" />
  <path
     d="M73.5 42.0049C73.5 33.2527 70.0232 24.8591 63.8345 18.6704C57.6458 12.4817 49.2521 9.00488 40.5 9.00488C31.7479 9.00488 23.3542 12.4817 17.1655 18.6704C10.9768 24.8591 7.5 33.2527 7.5 42.0049"
     stroke="black"
     id="path2"
     style="stroke:#803820;stroke-opacity:1" />
</svg>
