<?xml version="1.0" encoding="UTF-8" standalone="no"?>
<svg
   width="80"
   height="80"
   viewBox="0 0 80 80"
   fill="none"
   version="1.1"
   id="svg2"
   sodipodi:docname="fresh_ingeredients.svg"
   inkscape:version="1.3.2 (091e20e, 2023-11-25, custom)"
   inkscape:export-filename="fresh_ingeredients.png"
   inkscape:export-xdpi="96"
   inkscape:export-ydpi="96"
   xmlns:inkscape="http://www.inkscape.org/namespaces/inkscape"
   xmlns:sodipodi="http://sodipodi.sourceforge.net/DTD/sodipodi-0.dtd"
   xmlns="http://www.w3.org/2000/svg"
   xmlns:svg="http://www.w3.org/2000/svg">
  <defs
     id="defs2" />
  <sodipodi:namedview
     id="namedview2"
     pagecolor="#ffffff"
     bordercolor="#000000"
     borderopacity="0.25"
     inkscape:showpageshadow="2"
     inkscape:pageopacity="0.0"
     inkscape:pagecheckerboard="0"
     inkscape:deskcolor="#d1d1d1"
     showgrid="false"
     inkscape:zoom="10.367953"
     inkscape:cx="37.857038"
     inkscape:cy="43.258297"
     inkscape:window-width="2560"
     inkscape:window-height="1369"
     inkscape:window-x="2728"
     inkscape:window-y="-8"
     inkscape:window-maximized="1"
     inkscape:current-layer="svg2" />
  <path
     d="M35.5113 41.916C36.2222 40.169 37.4603 38.6889 39.0521 37.6832C40.6438 36.6774 42.5093 36.1963 44.3873 36.307C46.2653 36.4177 48.0618 37.1147 49.525 38.3006C50.9883 39.4866 52.045 41.102 52.5467 42.9206C53.0485 44.7392 52.9702 46.6696 52.3227 48.4413C51.6752 50.213 50.4911 51.7369 48.9366 52.7997C47.3822 53.8624 45.5352 54.4108 43.6545 54.3682C41.7737 54.3256 39.9533 53.694 38.4483 52.5619"
     stroke="black"
     id="path1"
     style="stroke:#803820;stroke-opacity:1" />
  <path
     d="M64.5672 15.0288L64.7912 14.5818C64.6502 14.5111 64.4841 14.5111 64.3431 14.5818L64.5672 15.0288ZM78 79V79.5C78.2761 79.5 78.5 79.2761 78.5 79H78ZM3 48.6978L2.53678 48.5096C2.51249 48.5694 2.5 48.6333 2.5 48.6978H3ZM52.2537 15.5899L52.4778 15.1429L52.2537 15.5899ZM55.6119 6.61151L55.8219 7.06531L55.6119 6.61151ZM64.0075 8.85612L63.6373 9.19219C63.8149 9.38785 64.1141 9.41151 64.3202 9.2462L64.0075 8.85612ZM71.2836 6.05036L71.1782 6.53912L71.2836 6.05036ZM64.5672 4.92806L65.0493 5.06038L64.5672 4.92806ZM66.6874 1.23541C66.8174 0.991786 66.7253 0.688896 66.4817 0.558884C66.2381 0.428872 65.9352 0.520971 65.8052 0.764592L66.6874 1.23541ZM58.7456 17.9471L58.5215 17.5001L58.7456 17.9471ZM56.9545 17.9464L57.1785 17.4994L56.9545 17.9464ZM36.8052 15.4781L37.0293 15.9251L36.8052 15.4781ZM38.5978 15.4781L38.3737 15.9251L38.5978 15.4781ZM30.0888 17.9464L30.3129 17.4994L30.0888 17.9464ZM31.8814 17.9464L31.6573 17.4994L31.8814 17.9464ZM27.1649 16.4807L26.9409 16.9276L27.1649 16.4807ZM38.1141 48.3358L37.6508 48.524L38.1141 48.3358ZM50.238 15.4781L50.014 15.0311L50.238 15.4781ZM52.0306 15.4781L51.8065 15.9251L52.0306 15.4781ZM43.5216 17.9464L43.7457 17.4994L43.5216 17.9464ZM45.3142 17.9464L45.0901 17.4994L45.3142 17.9464ZM32.7239 3.56115V4.93241H33.7239V3.56115H32.7239ZM44.3582 4.93241V3.56115H43.3582V4.93241H44.3582ZM41.8582 1.06115H35.2239V2.06115H41.8582V1.06115ZM34.403 6.61151V7.97842H35.403V6.61151H34.403ZM32.903 9.47842H30.7463V10.4784H32.903V9.47842ZM28.2463 11.9784V17.2734H29.2463V11.9784H28.2463ZM28.9703 16.8264L27.389 16.0337L26.9409 16.9276L28.5222 17.7204L28.9703 16.8264ZM28.5222 17.7204L29.8647 18.3934L30.3129 17.4994L28.9703 16.8264L28.5222 17.7204ZM32.1054 18.3934L37.0293 15.9251L36.5811 15.0311L31.6573 17.4994L32.1054 18.3934ZM38.3737 15.9251L43.2976 18.3934L43.7457 17.4994L38.8218 15.0311L38.3737 15.9251ZM58.9697 18.3941C59.1425 18.3074 59.3237 18.2166 59.5318 18.1123C59.5593 18.0985 59.5235 18.1164 59.551 18.1027C59.5763 18.09 59.545 18.1057 59.5703 18.093C59.5706 18.0928 59.6088 18.0737 59.6092 18.0735C59.6124 18.0719 59.6157 18.0702 59.6189 18.0686C59.6222 18.067 59.6255 18.0653 59.6287 18.0637C59.6365 18.0598 59.6406 18.0577 59.6484 18.0538C59.6517 18.0522 59.655 18.0505 59.6583 18.0489C59.6615 18.0472 59.6648 18.0456 59.6681 18.0439C59.6714 18.0423 59.6747 18.0406 59.678 18.039C59.6813 18.0373 59.6847 18.0357 59.688 18.034C59.7092 18.0234 59.7464 18.0047 59.7681 17.9938C59.7715 17.9921 59.7749 17.9904 59.7782 17.9888C59.7816 17.9871 59.785 17.9854 59.7884 17.9837C59.7918 17.982 59.7951 17.9803 59.7985 17.9786C59.8019 17.9769 59.8053 17.9752 59.8087 17.9735C59.8329 17.9613 59.8049 17.9754 59.8291 17.9632C59.8325 17.9615 59.8359 17.9598 59.8394 17.9581C59.8428 17.9564 59.8462 17.9547 59.8496 17.953C59.8769 17.9393 59.8634 17.946 59.8909 17.9323C59.9153 17.92 59.8871 17.9342 59.9116 17.9219C59.9144 17.9205 59.9296 17.9129 59.9324 17.9115C59.9359 17.9097 59.9394 17.908 59.9428 17.9062C59.9463 17.9045 59.9498 17.9027 59.9533 17.901C59.9568 17.8992 59.9603 17.8975 59.9638 17.8957C59.9673 17.894 59.9708 17.8922 59.9743 17.8905C59.9991 17.878 59.9704 17.8924 59.9953 17.8799C59.9988 17.8782 60.0023 17.8764 60.0059 17.8746C60.0094 17.8729 60.0129 17.8711 60.0164 17.8694C60.0199 17.8676 60.0235 17.8658 60.027 17.864C60.0305 17.8623 60.0341 17.8605 60.0376 17.8587C60.0412 17.857 60.0447 17.8552 60.0482 17.8534C60.0518 17.8516 60.0553 17.8498 60.0589 17.8481C60.0652 17.8449 60.0739 17.8405 60.0802 17.8374C60.0923 17.8313 60.0895 17.8327 60.1016 17.8266C60.1304 17.8122 60.1588 17.798 60.188 17.7833C60.2059 17.7743 60.1918 17.7814 60.2098 17.7724C60.2134 17.7706 60.217 17.7688 60.2207 17.767C60.2243 17.7651 60.228 17.7633 60.2316 17.7615C60.2353 17.7597 60.2389 17.7578 60.2425 17.756C60.2462 17.7542 60.2499 17.7523 60.2535 17.7505C60.2572 17.7487 60.2608 17.7468 60.2645 17.745C60.2681 17.7432 60.2718 17.7413 60.2755 17.7395C60.3026 17.7259 60.2924 17.731 60.3196 17.7174C60.3324 17.7109 60.329 17.7127 60.3418 17.7062C60.3613 17.6965 60.3445 17.7049 60.364 17.6951C60.4191 17.6675 60.3982 17.678 60.4536 17.6502C60.4689 17.6425 60.4607 17.6466 60.4761 17.6389C60.4802 17.6369 60.4946 17.6297 60.4987 17.6276C60.5006 17.6266 60.5421 17.6059 60.5441 17.6048C60.5479 17.6029 60.5516 17.601 60.5554 17.5991C60.5592 17.5972 60.563 17.5953 60.5668 17.5934C60.5706 17.5915 60.5744 17.5896 60.5782 17.5877C60.5821 17.5858 60.5859 17.5839 60.5897 17.582C60.5935 17.5801 60.5973 17.5782 60.6011 17.5763C60.6049 17.5743 60.6087 17.5724 60.6126 17.5705C60.6348 17.5594 60.6132 17.5702 60.6355 17.559C60.6501 17.5517 60.6669 17.5433 60.6815 17.5359C60.6854 17.534 60.6892 17.5321 60.6931 17.5301C60.6969 17.5282 60.7008 17.5263 60.7047 17.5243C60.7296 17.5118 60.7028 17.5253 60.7278 17.5127C60.7413 17.5059 60.7375 17.5079 60.751 17.5011C60.7531 17.5001 60.7722 17.4905 60.7743 17.4894C60.8113 17.4709 60.7838 17.4847 60.8209 17.466C60.8233 17.4649 60.842 17.4555 60.8444 17.4543C60.8483 17.4524 60.8522 17.4504 60.8561 17.4484C60.86 17.4465 60.8639 17.4445 60.8678 17.4426C60.8717 17.4406 60.8756 17.4386 60.8796 17.4367C60.8835 17.4347 60.8874 17.4327 60.8913 17.4308C60.9169 17.4179 60.8893 17.4318 60.9149 17.419C60.9259 17.4134 60.9274 17.4127 60.9385 17.4071C60.9424 17.4052 60.9463 17.4032 60.9503 17.4012C60.9542 17.3992 60.9582 17.3973 60.9621 17.3953C60.981 17.3858 60.9669 17.3929 60.9858 17.3834C61.0046 17.374 60.9907 17.3809 61.0095 17.3715C61.0254 17.3635 61.0888 17.3318 61.1049 17.3237C61.1443 17.3039 61.1133 17.3195 61.1528 17.2997C61.1949 17.2786 61.1587 17.2967 61.2009 17.2756C61.2274 17.2623 61.1985 17.2768 61.225 17.2635C61.229 17.2615 61.233 17.2595 61.2371 17.2575C61.2411 17.2554 61.2451 17.2534 61.2491 17.2514C61.2691 17.2414 61.2533 17.2493 61.2733 17.2393C61.2773 17.2373 61.2814 17.2352 61.2854 17.2332C61.2894 17.2312 61.2935 17.2292 61.2975 17.2271C61.3015 17.2251 61.3056 17.2231 61.3096 17.2211C61.3137 17.219 61.3177 17.217 61.3217 17.215C61.3258 17.213 61.3298 17.2109 61.3339 17.2089C61.3379 17.2069 61.342 17.2049 61.346 17.2028C61.3501 17.2008 61.3541 17.1988 61.3582 17.1967C61.3622 17.1947 61.3663 17.1927 61.3703 17.1906C61.3862 17.1827 61.3788 17.1864 61.3947 17.1784C61.427 17.1622 61.4598 17.1458 61.4923 17.1295C61.4964 17.1274 61.5005 17.1254 61.5046 17.1233C61.5087 17.1213 61.5127 17.1192 61.5168 17.1172C61.5209 17.1152 61.525 17.1131 61.5291 17.1111C61.5332 17.109 61.5373 17.107 61.5414 17.1049C61.5454 17.1029 61.5495 17.1008 61.5536 17.0988C61.5577 17.0967 61.5618 17.0947 61.5659 17.0926C61.57 17.0905 61.5741 17.0885 61.5782 17.0864C61.5823 17.0844 61.5864 17.0823 61.5905 17.0803C61.5929 17.0791 61.6126 17.0692 61.6151 17.0679C61.637 17.057 61.6178 17.0666 61.6397 17.0556C61.6438 17.0535 61.6479 17.0515 61.652 17.0494C61.6561 17.0474 61.6603 17.0453 61.6644 17.0432C61.667 17.0419 61.6864 17.0322 61.689 17.0309C61.7489 17.0009 61.728 17.0114 61.788 16.9813C61.8542 16.9481 61.8209 16.9648 61.8872 16.9315C61.8953 16.9275 61.9041 16.9231 61.9121 16.9191C61.943 16.9036 61.906 16.9221 61.937 16.9066C61.9538 16.8981 61.9699 16.8901 61.9868 16.8816C62.0182 16.8659 62.0052 16.8724 62.0366 16.8566C62.048 16.8509 62.0502 16.8498 62.0616 16.8441C62.0807 16.8345 62.0674 16.8412 62.0866 16.8316C62.1093 16.8202 62.1137 16.818 62.1365 16.8066C62.139 16.8053 62.1841 16.7827 62.1865 16.7815C62.1907 16.7794 62.1949 16.7773 62.199 16.7752C62.2032 16.7731 62.2074 16.771 62.2115 16.7689C62.2157 16.7669 62.2199 16.7648 62.2241 16.7627C62.2282 16.7606 62.2324 16.7585 62.2366 16.7564C62.2407 16.7543 62.2449 16.7522 62.2491 16.7501C62.2533 16.748 62.2574 16.7459 62.2616 16.7438C62.2924 16.7284 62.2558 16.7467 62.2866 16.7313C62.3426 16.7033 62.3309 16.7091 62.3869 16.6811C62.391 16.679 62.3952 16.6769 62.3994 16.6748C62.4036 16.6727 62.4077 16.6706 62.4119 16.6685C62.4161 16.6664 62.4203 16.6643 62.4245 16.6622C62.4286 16.6601 62.4328 16.658 62.437 16.6559C62.4412 16.6538 62.4454 16.6517 62.4495 16.6496C62.4537 16.6475 62.4579 16.6455 62.4621 16.6434C62.4712 16.6388 62.478 16.6354 62.4871 16.6308C62.4913 16.6287 62.4955 16.6266 62.4997 16.6245C62.5038 16.6224 62.508 16.6203 62.5122 16.6182C62.5164 16.6161 62.5206 16.614 62.5247 16.6119C62.5289 16.6098 62.5331 16.6078 62.5373 16.6057C62.5415 16.6036 62.5456 16.6015 62.5498 16.5994C62.554 16.5973 62.5582 16.5952 62.5623 16.5931C62.5665 16.591 62.5707 16.5889 62.5749 16.5868C62.5791 16.5847 62.5832 16.5826 62.5874 16.5805C62.5916 16.5784 62.5958 16.5763 62.5999 16.5742C62.6041 16.5721 62.6083 16.5701 62.6125 16.568C62.6234 16.5625 62.6266 16.5609 62.6375 16.5554C62.6646 16.5418 62.6606 16.5438 62.6877 16.5303C62.6918 16.5282 62.696 16.5261 62.7002 16.524C62.7044 16.5219 62.7085 16.5198 62.7127 16.5177C62.7169 16.5156 62.7211 16.5135 62.7252 16.5114C62.7294 16.5093 62.7336 16.5073 62.7378 16.5052C62.7419 16.5031 62.7461 16.501 62.7503 16.4989C62.7544 16.4968 62.7586 16.4947 62.7628 16.4926C62.767 16.4905 62.7711 16.4884 62.7753 16.4863C62.7795 16.4842 62.7836 16.4822 62.7878 16.4801C62.8124 16.4677 62.7883 16.4798 62.8128 16.4675C62.8223 16.4628 62.8284 16.4597 62.8379 16.455C62.8445 16.4516 62.8562 16.4458 62.8629 16.4424C62.8802 16.4338 62.8705 16.4386 62.8879 16.4299C62.8985 16.4246 62.9771 16.3852 62.9877 16.3799C62.9968 16.3753 63.0036 16.3719 63.0126 16.3674C63.0515 16.3479 62.9987 16.3744 63.0376 16.3549C63.0604 16.3434 63.0645 16.3414 63.0873 16.3299C63.0946 16.3263 63.105 16.3211 63.1122 16.3174C63.1388 16.3041 63.1105 16.3183 63.1371 16.305C63.1489 16.299 63.1749 16.286 63.1867 16.2801C63.2442 16.2513 63.2284 16.2592 63.2858 16.2304C63.305 16.2208 63.316 16.2153 63.3352 16.2057C63.3393 16.2036 63.3434 16.2015 63.3475 16.1995C63.3516 16.1974 63.3557 16.1954 63.3598 16.1933C63.364 16.1912 63.3681 16.1892 63.3722 16.1871C63.3763 16.1851 63.3804 16.183 63.3845 16.181C63.4113 16.1675 63.4562 16.145 63.4828 16.1317C63.5047 16.1207 63.4854 16.1304 63.5073 16.1194C63.5097 16.1182 63.5294 16.1083 63.5318 16.1071C63.5671 16.0894 63.521 16.1125 63.5562 16.0949C63.5603 16.0928 63.5644 16.0908 63.5684 16.0887C63.5725 16.0867 63.5766 16.0847 63.5806 16.0826C63.6063 16.0697 63.6038 16.071 63.6294 16.0582C63.6487 16.0485 63.6588 16.0435 63.678 16.0338C63.6781 16.0338 63.7022 16.0217 63.7023 16.0217C63.708 16.0188 63.7208 16.0124 63.7265 16.0095C63.7614 15.992 63.7399 16.0028 63.7748 15.9853C63.7793 15.9831 63.8186 15.9633 63.823 15.9611C63.8251 15.9601 63.869 15.9381 63.8711 15.937C63.9638 15.8906 63.9698 15.8875 64.0616 15.8415C64.0627 15.8409 64.0841 15.8302 64.0852 15.8297C64.089 15.8278 64.1051 15.8197 64.1088 15.8179C64.1127 15.8159 64.1167 15.8139 64.1206 15.812C64.1245 15.81 64.1284 15.808 64.1323 15.8061C64.1436 15.8004 64.1446 15.7999 64.1558 15.7943C64.1961 15.7741 64.1624 15.791 64.2026 15.7708C64.2065 15.7689 64.2104 15.7669 64.2143 15.765C64.2182 15.763 64.2221 15.7611 64.226 15.7591C64.2299 15.7572 64.2337 15.7552 64.2376 15.7533C64.2415 15.7513 64.2454 15.7494 64.2493 15.7474C64.2806 15.7317 64.3108 15.7166 64.3419 15.701C64.3474 15.6983 64.3595 15.6922 64.3649 15.6895C64.3687 15.6876 64.3726 15.6856 64.3764 15.6837C64.3802 15.6818 64.3841 15.6799 64.3879 15.678C64.4033 15.6702 64.3954 15.6742 64.4108 15.6665C64.4304 15.6567 64.4141 15.6648 64.4337 15.655C64.4375 15.6531 64.4754 15.6341 64.4792 15.6322C64.483 15.6303 64.4868 15.6284 64.4906 15.6265C64.4943 15.6246 64.4981 15.6227 64.5019 15.6208C64.5239 15.6098 64.5026 15.6205 64.5245 15.6095C64.5283 15.6076 64.5321 15.6057 64.5358 15.6038C64.5396 15.6019 64.5433 15.6 64.5471 15.5981C64.5508 15.5963 64.5546 15.5944 64.5584 15.5925C64.5621 15.5906 64.5659 15.5887 64.5696 15.5869C64.5976 15.5728 64.5865 15.5784 64.6144 15.5644C64.6182 15.5625 64.6219 15.5607 64.6256 15.5588C64.6293 15.5569 64.633 15.5551 64.6368 15.5532C64.6405 15.5513 64.6442 15.5495 64.6479 15.5476C64.6516 15.5458 64.6553 15.5439 64.659 15.542C64.6924 15.5253 64.6701 15.5365 64.7034 15.5198C64.7189 15.512 64.71 15.5165 64.7254 15.5087C64.7291 15.5069 64.7328 15.5051 64.7364 15.5032C64.7401 15.5014 64.7438 15.4996 64.7474 15.4977C64.762 15.4904 64.7548 15.494 64.7694 15.4867C64.7703 15.4863 64.7903 15.4762 64.7912 15.4758L64.3431 14.5818C64.3167 14.595 64.3257 14.5905 64.2993 14.6038C64.2956 14.6056 64.292 14.6074 64.2883 14.6093C64.2846 14.6111 64.281 14.6129 64.2773 14.6148C64.2573 14.6248 64.2752 14.6158 64.2552 14.6258C64.2429 14.632 64.2233 14.6419 64.2109 14.6481C64.2072 14.6499 64.2035 14.6518 64.1998 14.6536C64.1961 14.6555 64.1923 14.6574 64.1886 14.6592C64.18 14.6636 64.175 14.6661 64.1663 14.6704C64.1489 14.6792 64.1614 14.6729 64.1439 14.6816C64.1257 14.6908 64.1397 14.6838 64.1215 14.6929C64.0827 14.7123 64.1153 14.696 64.0764 14.7155C64.0483 14.7296 64.0139 14.7468 63.9855 14.761C63.9801 14.7638 63.8995 14.8042 63.8937 14.8071C63.8826 14.8126 63.8818 14.813 63.8707 14.8186C63.8316 14.8382 63.8867 14.8106 63.8475 14.8302C63.8399 14.834 63.832 14.838 63.8244 14.8418C63.81 14.849 63.8154 14.8463 63.8011 14.8535C63.7922 14.858 63.7868 14.8607 63.7778 14.8652C63.7594 14.8744 63.773 14.8676 63.7545 14.8769C63.7316 14.8883 63.754 14.8771 63.7311 14.8886C63.7274 14.8904 63.7114 14.8984 63.7077 14.9003C63.7056 14.9013 63.6862 14.9111 63.6842 14.9121C63.6572 14.9256 63.6877 14.9104 63.6607 14.9239C63.6456 14.9314 63.6521 14.9282 63.6371 14.9357C63.6351 14.9367 63.6154 14.9466 63.6135 14.9476C63.5204 14.9942 63.5169 14.996 63.4229 15.0431C63.3833 15.0629 63.4146 15.0473 63.3749 15.0672C63.3709 15.0692 63.3308 15.0893 63.3267 15.0913C63.2944 15.1075 63.2624 15.1236 63.2299 15.1398C63.2258 15.1419 63.2218 15.1439 63.2177 15.1459C63.2137 15.148 63.2096 15.15 63.2056 15.152C63.2015 15.1541 63.1975 15.1561 63.1934 15.1581C63.1894 15.1602 63.1853 15.1622 63.1813 15.1642C63.1772 15.1663 63.1731 15.1683 63.1691 15.1703C63.165 15.1724 63.161 15.1744 63.1569 15.1764C63.1354 15.1872 63.154 15.1779 63.1325 15.1887C63.1239 15.193 63.1167 15.1966 63.1081 15.2009C63.0722 15.2189 63.1195 15.1952 63.0836 15.2132C63.0811 15.2144 63.0617 15.2242 63.0592 15.2254C63.0382 15.2359 63.0556 15.2272 63.0347 15.2377C63.0242 15.2429 62.996 15.2571 62.9856 15.2623C62.9724 15.2689 62.9741 15.2681 62.961 15.2747C62.9541 15.2781 62.9433 15.2835 62.9363 15.287C62.9322 15.289 62.9281 15.2911 62.924 15.2932C62.9199 15.2952 62.9158 15.2973 62.9117 15.2993C62.9076 15.3014 62.9035 15.3035 62.8994 15.3055C62.8953 15.3076 62.8912 15.3096 62.887 15.3117C62.879 15.3157 62.8704 15.3201 62.8624 15.3241C62.8354 15.3376 62.8646 15.3229 62.8376 15.3365C62.8335 15.3385 62.8294 15.3406 62.8253 15.3427C62.8212 15.3447 62.817 15.3468 62.8129 15.3489C62.8065 15.3521 62.7946 15.3581 62.7882 15.3613C62.784 15.3633 62.7799 15.3654 62.7758 15.3675C62.7716 15.3696 62.7675 15.3716 62.7634 15.3737C62.7592 15.3758 62.7551 15.3778 62.751 15.3799C62.7468 15.382 62.7427 15.3841 62.7386 15.3861C62.694 15.4085 62.6839 15.4136 62.6392 15.4359C62.6194 15.4459 62.5595 15.4759 62.5396 15.4859C62.4975 15.507 62.5318 15.4898 62.4897 15.5109C62.4514 15.5301 62.503 15.5042 62.4647 15.5234C62.4605 15.5255 62.4564 15.5276 62.4522 15.5297C62.448 15.5318 62.4439 15.5339 62.4397 15.536C62.4016 15.555 62.3778 15.567 62.3397 15.5861C62.3355 15.5882 62.3313 15.5903 62.3272 15.5924C62.323 15.5945 62.3188 15.5966 62.3147 15.5986C62.3105 15.6007 62.3063 15.6028 62.3021 15.6049C62.298 15.607 62.2938 15.6091 62.2896 15.6112C62.2791 15.6164 62.275 15.6185 62.2646 15.6238C62.2604 15.6258 62.2562 15.6279 62.252 15.63C62.2479 15.6321 62.2437 15.6342 62.2395 15.6363C62.2348 15.6387 62.2192 15.6465 62.2145 15.6489C62.2103 15.651 62.2061 15.6531 62.2019 15.6551C62.1978 15.6572 62.1936 15.6593 62.1894 15.6614C62.1584 15.677 62.1703 15.671 62.1393 15.6866C62.1132 15.6996 62.0651 15.7238 62.039 15.7368C62.0315 15.7406 62.0214 15.7456 62.0139 15.7494C62.0097 15.7515 62.0056 15.7536 62.0014 15.7557C61.9972 15.7578 61.993 15.7599 61.9889 15.762C61.9769 15.768 61.9507 15.7811 61.9387 15.7871C61.901 15.806 61.9263 15.7933 61.8886 15.8122C61.8552 15.829 61.8719 15.8206 61.8385 15.8373C61.8254 15.8439 61.8016 15.8559 61.7884 15.8624C61.754 15.8797 61.7979 15.8577 61.7634 15.875C61.7592 15.8771 61.7551 15.8792 61.7509 15.8813C61.7467 15.8833 61.7426 15.8854 61.7384 15.8875C61.7373 15.8881 61.6894 15.9121 61.6884 15.9126C61.6653 15.9242 61.6615 15.9261 61.6384 15.9376C61.5901 15.9619 61.5869 15.9634 61.5386 15.9877C61.4988 16.0076 61.4788 16.0176 61.4391 16.0376C61.4301 16.0421 61.4232 16.0455 61.4142 16.05C61.4101 16.0521 61.406 16.0542 61.4018 16.0562C61.3977 16.0583 61.3936 16.0604 61.3894 16.0625C61.3739 16.0702 61.3801 16.0671 61.3646 16.0749C61.3605 16.077 61.3564 16.079 61.3522 16.0811C61.3481 16.0832 61.344 16.0852 61.3398 16.0873C61.2987 16.1079 61.3314 16.0916 61.2903 16.1121C61.2589 16.1279 61.297 16.1088 61.2656 16.1245C61.2615 16.1266 61.245 16.1349 61.2409 16.1369C61.2368 16.139 61.2327 16.141 61.2286 16.1431C61.2244 16.1452 61.2203 16.1472 61.2162 16.1493C61.2026 16.1561 61.2052 16.1548 61.1916 16.1616C61.1875 16.1637 61.1834 16.1658 61.1793 16.1678C61.1751 16.1699 61.171 16.1719 61.1669 16.174C61.1628 16.176 61.1587 16.1781 61.1546 16.1802C61.1505 16.1822 61.1464 16.1843 61.1423 16.1863C61.1382 16.1884 61.1341 16.1904 61.1301 16.1925C61.126 16.1945 61.1219 16.1966 61.1178 16.1986C61.1033 16.2059 61.1076 16.2037 61.0932 16.2109C61.0757 16.2197 61.0617 16.2267 61.0442 16.2355C60.9724 16.2715 60.9205 16.2975 60.8494 16.3332C60.8374 16.3392 60.8129 16.3515 60.801 16.3574C60.797 16.3595 60.7929 16.3615 60.7889 16.3635C60.7849 16.3655 60.7809 16.3675 60.7769 16.3695C60.7728 16.3715 60.7688 16.3736 60.7648 16.3756C60.7608 16.3776 60.7568 16.3796 60.7528 16.3816C60.7331 16.3915 60.7243 16.3959 60.7047 16.4057C60.6963 16.4099 60.6891 16.4135 60.6807 16.4177C60.6767 16.4197 60.6727 16.4217 60.6687 16.4237C60.6647 16.4257 60.6607 16.4277 60.6568 16.4297C60.609 16.4537 60.6089 16.4537 60.5614 16.4775C60.5545 16.481 60.5445 16.486 60.5377 16.4894C60.5337 16.4914 60.5298 16.4934 60.5258 16.4954C60.5219 16.4974 60.5179 16.4993 60.514 16.5013C60.51 16.5033 60.5061 16.5053 60.5021 16.5072C60.4982 16.5092 60.4943 16.5112 60.4903 16.5132C60.4704 16.5231 60.4866 16.515 60.4667 16.525C60.4267 16.5451 60.4126 16.5521 60.3728 16.5721C60.3654 16.5758 60.3568 16.5801 60.3494 16.5838C60.3456 16.5857 60.3417 16.5877 60.3378 16.5896C60.3339 16.5916 60.33 16.5935 60.3261 16.5955C60.3127 16.6022 60.3163 16.6004 60.3029 16.6071C60.301 16.6081 60.2815 16.6179 60.2797 16.6188C60.2437 16.6368 60.2925 16.6123 60.2565 16.6304C60.2527 16.6323 60.2488 16.6342 60.245 16.6362C60.2411 16.6381 60.2373 16.64 60.2334 16.642C60.2296 16.6439 60.2257 16.6458 60.2219 16.6477C60.218 16.6497 60.2142 16.6516 60.2104 16.6535C60.2011 16.6581 60.1966 16.6604 60.1874 16.665C60.1827 16.6674 60.1691 16.6742 60.1644 16.6765C60.1606 16.6785 60.1568 16.6804 60.153 16.6823C60.1492 16.6842 60.1453 16.6861 60.1415 16.688C60.1263 16.6956 60.1111 16.7033 60.0959 16.7109C60.0447 16.7366 60.0564 16.7307 60.0054 16.7563C59.9881 16.7649 59.9329 16.7926 59.9159 16.8011C59.8574 16.8304 59.7969 16.8608 59.7399 16.8894C59.7111 16.9038 59.6819 16.9184 59.6535 16.9327C59.6448 16.937 59.6408 16.939 59.6321 16.9434C59.6108 16.9541 59.632 16.9434 59.6107 16.9541C59.6072 16.9559 59.6036 16.9577 59.6001 16.9594C59.5966 16.9612 59.593 16.963 59.5895 16.9648C59.5859 16.9665 59.5824 16.9683 59.5789 16.9701C59.5753 16.9718 59.5718 16.9736 59.5683 16.9754C59.542 16.9885 59.5523 16.9834 59.5261 16.9965C59.5226 16.9983 59.5191 17 59.5156 17.0018C59.5121 17.0035 59.5086 17.0053 59.5051 17.007C59.5032 17.008 59.4862 17.0165 59.4843 17.0175C59.4661 17.0266 59.4815 17.0189 59.4634 17.0279C59.4392 17.0401 59.467 17.0262 59.4427 17.0383C59.4386 17.0404 59.4261 17.0467 59.4221 17.0487C59.4186 17.0504 59.4152 17.0521 59.4118 17.0539C59.4083 17.0556 59.4049 17.0573 59.4015 17.059C59.3392 17.0902 59.3818 17.0689 59.32 17.0999C59.3033 17.1082 59.3165 17.1016 59.2998 17.11C59.2965 17.1116 59.2931 17.1133 59.2898 17.115C59.2864 17.1167 59.2831 17.1184 59.2797 17.12C59.2764 17.1217 59.2731 17.1234 59.2697 17.1251C59.2664 17.1267 59.2631 17.1284 59.2597 17.1301C59.2413 17.1393 59.2582 17.1308 59.2398 17.14C59.2278 17.1461 59.2122 17.1539 59.2003 17.1599C59.1775 17.1713 59.1837 17.1682 59.161 17.1795C59.1578 17.1812 59.1545 17.1828 59.1513 17.1844C59.148 17.186 59.1448 17.1877 59.1416 17.1893C59.1383 17.1909 59.1351 17.1925 59.1319 17.1942C59.1286 17.1958 59.1254 17.1974 59.1222 17.199C59.119 17.2006 59.1157 17.2022 59.1125 17.2039C59.1093 17.2055 59.1061 17.2071 59.1029 17.2087C59.0977 17.2113 59.0888 17.2157 59.0837 17.2183C58.8824 17.3192 58.6876 17.4169 58.5215 17.5001L58.9697 18.3941ZM64.3431 15.4758C64.5068 15.5578 64.677 15.6431 64.8508 15.7303C64.9137 15.7618 64.9187 15.7643 64.9821 15.7961C65.0464 15.8283 65.0503 15.8303 65.115 15.8627C65.1205 15.8655 65.1261 15.8683 65.1317 15.8711C65.1373 15.8739 65.1428 15.8767 65.1484 15.8795C65.1589 15.8847 65.1714 15.891 65.1819 15.8963C65.2166 15.9136 65.2145 15.9126 65.2492 15.93C65.2775 15.9442 65.2547 15.9328 65.283 15.9469C65.2886 15.9498 65.2943 15.9526 65.2999 15.9554C65.3056 15.9582 65.3112 15.9611 65.3168 15.9639C65.3492 15.9801 65.3184 15.9647 65.3508 15.9809C65.3686 15.9898 65.3669 15.989 65.3848 15.9979C65.3904 16.0008 65.3961 16.0036 65.4018 16.0065C65.4075 16.0093 65.4131 16.0122 65.4188 16.015C65.4245 16.0179 65.4302 16.0207 65.4359 16.0236C65.4416 16.0264 65.4473 16.0293 65.4529 16.0321C65.4586 16.035 65.4643 16.0378 65.47 16.0407C65.4757 16.0435 65.4814 16.0464 65.4871 16.0493C65.4929 16.0521 65.4986 16.055 65.5043 16.0579C65.51 16.0607 65.5157 16.0636 65.5214 16.0664C65.5308 16.0711 65.5807 16.0961 65.5901 16.1009C65.5959 16.1038 65.6016 16.1066 65.6073 16.1095C65.6131 16.1124 65.6188 16.1153 65.6246 16.1182C65.6303 16.121 65.6361 16.1239 65.6418 16.1268C65.6476 16.1297 65.6533 16.1326 65.6591 16.1355C65.6706 16.1412 65.6821 16.147 65.6936 16.1528C65.6994 16.1557 65.7052 16.1586 65.7109 16.1614C65.7167 16.1643 65.7225 16.1672 65.7282 16.1701C65.7541 16.1831 65.737 16.1745 65.7629 16.1875C65.7687 16.1904 65.7745 16.1933 65.7803 16.1962C65.786 16.1991 65.7918 16.202 65.7976 16.2049C65.813 16.2126 65.9213 16.2669 65.9369 16.2747C65.9831 16.2979 66.0305 16.3216 66.0768 16.3449C66.101 16.357 66.0877 16.3503 66.1119 16.3625C66.1142 16.3636 66.1447 16.3789 66.147 16.38C66.205 16.4091 66.1592 16.3862 66.2173 16.4153C66.253 16.4332 66.2166 16.415 66.2524 16.4329C66.2583 16.4358 66.2641 16.4388 66.27 16.4417C66.2759 16.4447 66.2817 16.4476 66.2876 16.4505C66.2935 16.4535 66.2993 16.4564 66.3052 16.4594C66.3111 16.4623 66.317 16.4652 66.3228 16.4682C66.3389 16.4763 66.3419 16.4778 66.358 16.4858C66.39 16.5019 66.3965 16.5051 66.4285 16.5212C66.4536 16.5338 66.4387 16.5263 66.4638 16.5389C66.4697 16.5418 66.4756 16.5448 66.4814 16.5477C66.4873 16.5506 66.4932 16.5536 66.4991 16.5565C66.5235 16.5688 66.5452 16.5797 66.5697 16.5919C66.5755 16.5949 66.5814 16.5978 66.5873 16.6008C66.5932 16.6037 66.5991 16.6067 66.6049 16.6096C66.6108 16.6126 66.6167 16.6155 66.6226 16.6185C66.6285 16.6214 66.6344 16.6244 66.6402 16.6273C66.6553 16.6349 66.6957 16.6551 66.7108 16.6627C66.7167 16.6656 66.7226 16.6686 66.7285 16.6715C66.7343 16.6745 66.7402 16.6774 66.7461 16.6804C66.752 16.6833 66.7579 16.6863 66.7637 16.6892C66.7696 16.6922 66.7755 16.6951 66.7814 16.6981C66.8007 16.7077 66.8326 16.7237 66.8519 16.7334C66.8578 16.7364 66.8637 16.7393 66.8695 16.7422C66.8754 16.7452 66.8813 16.7481 66.8871 16.7511C66.893 16.754 66.8989 16.757 66.9048 16.7599C66.9106 16.7629 66.9165 16.7658 66.9224 16.7687C66.9267 16.7709 66.9885 16.8019 66.9928 16.804C67.003 16.8091 67.0178 16.8166 67.028 16.8217C67.0338 16.8246 67.0397 16.8275 67.0455 16.8305C67.0514 16.8334 67.0573 16.8364 67.0631 16.8393C67.1093 16.8625 67.0872 16.8514 67.1333 16.8745C67.1417 16.8787 67.16 16.8879 67.1684 16.8921C67.1743 16.895 67.1801 16.8979 67.1859 16.9009C67.1918 16.9038 67.1976 16.9067 67.2035 16.9096C67.2093 16.9126 67.2151 16.9155 67.221 16.9184C67.2268 16.9213 67.2326 16.9243 67.2385 16.9272C67.2443 16.9301 67.2501 16.933 67.256 16.936C67.2618 16.9389 67.2676 16.9418 67.2734 16.9447C67.3134 16.9647 67.3034 16.9598 67.3433 16.9797C67.3491 16.9827 67.3549 16.9856 67.3607 16.9885C67.3665 16.9914 67.3723 16.9943 67.3781 16.9972C67.387 17.0017 67.4041 17.0102 67.413 17.0147C67.4477 17.0321 67.4478 17.0321 67.4825 17.0495C67.4882 17.0524 67.494 17.0553 67.4998 17.0582C67.5056 17.0611 67.5114 17.064 67.5171 17.0669C67.5509 17.0838 67.518 17.0673 67.5518 17.0843C67.5575 17.0871 67.5633 17.09 67.5691 17.0929C67.5748 17.0958 67.5806 17.0987 67.5863 17.1016C67.5921 17.1045 67.5979 17.1074 67.6036 17.1102C67.6094 17.1131 67.6151 17.116 67.6209 17.1189C67.6753 17.1462 67.6354 17.1262 67.6897 17.1534C67.7051 17.1611 67.7431 17.1802 67.7584 17.1878C67.7789 17.1981 67.772 17.1947 67.7926 17.205C67.7983 17.2078 67.804 17.2107 67.8097 17.2135C67.8154 17.2164 67.8211 17.2192 67.8267 17.2221C67.8324 17.2249 67.8381 17.2278 67.8438 17.2306C67.8495 17.2335 67.8551 17.2363 67.8608 17.2392C67.8665 17.242 67.8722 17.2449 67.8778 17.2477C67.8835 17.2505 67.8892 17.2534 67.8948 17.2562C67.9404 17.2791 67.8833 17.2504 67.9288 17.2732C67.9455 17.2816 67.946 17.2819 67.9626 17.2902C67.9645 17.2911 67.9946 17.3063 67.9964 17.3072C68.0029 17.3104 68.0238 17.3209 68.0301 17.3241C68.0358 17.3269 68.0414 17.3297 68.047 17.3325C68.0526 17.3353 68.0582 17.3381 68.0638 17.3409C68.1045 17.3613 68.0566 17.3373 68.0973 17.3577C68.1506 17.3845 68.111 17.3646 68.1642 17.3912C68.1697 17.394 68.1753 17.3968 68.1808 17.3996C68.1864 17.4024 68.1919 17.4052 68.1975 17.4079C68.2018 17.4101 68.2263 17.4224 68.2307 17.4246C68.2329 17.4257 68.2616 17.4401 68.2638 17.4412C68.2693 17.4439 68.2748 17.4467 68.2803 17.4495C68.2858 17.4522 68.2913 17.455 68.2968 17.4577C68.3493 17.484 68.3102 17.4644 68.3625 17.4907C68.368 17.4934 68.3735 17.4962 68.3789 17.4989C68.3844 17.5016 68.3898 17.5044 68.3953 17.5071C68.4284 17.5237 68.3948 17.5069 68.4279 17.5234C68.4711 17.5451 68.5146 17.5669 68.5573 17.5883C68.5626 17.591 68.568 17.5937 68.5733 17.5964C68.5787 17.599 68.584 17.6017 68.5894 17.6044C68.5947 17.6071 68.6 17.6097 68.6054 17.6124C68.6107 17.6151 68.616 17.6177 68.6213 17.6204C68.6471 17.6333 68.6274 17.6235 68.6532 17.6364C68.6585 17.639 68.6638 17.6417 68.6691 17.6443C68.6743 17.647 68.6796 17.6496 68.6849 17.6523C68.7545 17.6872 68.7417 17.6807 68.8106 17.7153C68.8158 17.7179 68.821 17.7205 68.8262 17.7231C68.8314 17.7257 68.8365 17.7283 68.8417 17.7309C68.8469 17.7335 68.8521 17.7361 68.8572 17.7387C68.8624 17.7413 68.8675 17.7438 68.8727 17.7464C68.8829 17.7515 68.8934 17.7568 68.9035 17.7619C68.9361 17.7782 68.9017 17.761 68.9342 17.7773C68.9394 17.7798 68.9445 17.7824 68.9496 17.785C68.9547 17.7875 68.9597 17.7901 68.9648 17.7926C68.9739 17.7972 68.9862 17.8033 68.9953 17.8079C69.0003 17.8104 69.0054 17.8129 69.0104 17.8155C69.0155 17.818 69.0205 17.8205 69.0256 17.8231C69.0564 17.8385 69.0249 17.8227 69.0557 17.8382C69.1302 17.8755 69.1012 17.861 69.1749 17.8979C69.1853 17.9031 69.194 17.9075 69.2043 17.9127C69.2045 17.9127 69.2335 17.9273 69.2336 17.9273C69.2384 17.9298 69.2433 17.9322 69.2481 17.9346C69.253 17.9371 69.2578 17.9395 69.2627 17.9419C69.2675 17.9443 69.2723 17.9468 69.2772 17.9492C69.282 17.9516 69.2868 17.954 69.2916 17.9564C69.3117 17.9665 69.3004 17.9608 69.3204 17.9709C69.3252 17.9733 69.33 17.9757 69.3348 17.9781C69.3395 17.9804 69.3443 17.9828 69.349 17.9852C69.3538 17.9876 69.3586 17.99 69.3633 17.9924C69.368 17.9947 69.3728 17.9971 69.3775 17.9995C69.3822 18.0019 69.387 18.0042 69.3917 18.0066C69.3964 18.009 69.4011 18.0113 69.4058 18.0137C69.4634 18.0425 69.4606 18.0412 69.5173 18.0696C69.5219 18.0719 69.5265 18.0742 69.531 18.0765C69.5356 18.0787 69.5402 18.081 69.5447 18.0833C69.5493 18.0856 69.5539 18.0879 69.5584 18.0902C69.5629 18.0924 69.5675 18.0947 69.572 18.097C69.6005 18.1113 69.5706 18.0963 69.5991 18.1106C69.6036 18.1128 69.6081 18.1151 69.6126 18.1173C69.617 18.1196 69.6215 18.1218 69.626 18.124C69.9157 18.2693 70.1628 18.3931 70.3789 18.5015C70.3955 18.5098 70.4414 18.5328 70.4566 18.5404C70.5018 18.5631 70.4862 18.5553 70.5301 18.5773C70.5494 18.587 70.5286 18.5765 70.5479 18.5862C70.5608 18.5927 70.5525 18.5885 70.5653 18.5949C70.5916 18.6081 70.5736 18.5991 70.5995 18.612C70.6035 18.6141 70.6618 18.6433 70.6645 18.6446C70.7276 18.6763 70.7239 18.6744 70.7809 18.703C70.8001 18.7126 70.7751 18.7001 70.7942 18.7097C70.7964 18.7107 70.7985 18.7118 70.8007 18.7129C70.8028 18.714 70.805 18.7151 70.8071 18.7161C70.811 18.7181 70.8286 18.7269 70.8321 18.7287C70.8329 18.7291 70.8556 18.7404 70.8559 18.7406C70.8748 18.7501 70.8486 18.7369 70.8674 18.7463C70.8775 18.7514 70.8684 18.7469 70.8785 18.7519C70.8803 18.7528 70.8821 18.7537 70.8839 18.7547C70.8857 18.7556 70.8875 18.7565 70.8893 18.7573C70.8907 18.7581 70.8985 18.7619 70.8998 18.7626C70.9015 18.7635 70.9033 18.7643 70.905 18.7652C70.9067 18.766 70.9083 18.7669 70.91 18.7677C70.9227 18.7741 70.9073 18.7664 70.9199 18.7727C70.9353 18.7804 70.9237 18.7746 70.9387 18.7821C70.9476 18.7866 70.9387 18.7821 70.9476 18.7866C70.9493 18.7874 70.9545 18.79 70.9562 18.7909C70.974 18.7998 70.9711 18.7984 70.9872 18.8064C71.0005 18.8131 71.0014 18.8135 71.0129 18.8193C71.029 18.8274 71.0391 18.8324 71.0477 18.8367C71.0601 18.843 71.0409 18.8333 71.0528 18.8393C71.0648 18.8453 71.0451 18.8354 71.0565 18.8412C71.0596 18.8427 71.0562 18.841 71.0588 18.8423C71.0591 18.8425 71.0591 18.8424 71.0593 18.8426C71.0594 18.8426 71.0594 18.8426 71.0595 18.8426C71.0595 18.8427 71.0595 18.8427 71.2836 18.3957C71.5077 17.9487 71.5076 17.9487 71.5076 17.9487C71.5076 17.9487 71.5075 17.9486 71.5075 17.9486C71.5074 17.9486 71.5073 17.9485 71.5072 17.9485C71.5071 17.9484 71.507 17.9484 71.5069 17.9483C71.5063 17.948 71.5058 17.9478 71.5047 17.9472C71.5028 17.9463 71.4996 17.9447 71.4958 17.9428C71.4937 17.9417 71.4852 17.9375 71.4812 17.9355C71.4764 17.933 71.4678 17.9287 71.461 17.9253C71.4601 17.9249 71.4591 17.9244 71.4581 17.9239C71.4571 17.9234 71.4561 17.9229 71.4551 17.9224C71.4541 17.9219 71.4531 17.9213 71.452 17.9208C71.451 17.9203 71.4499 17.9198 71.4489 17.9192C71.4429 17.9162 71.4418 17.9157 71.4353 17.9125C71.4207 17.9051 71.4207 17.9051 71.4043 17.8969C71.3684 17.8789 71.4056 17.8976 71.368 17.8787C71.3626 17.876 71.3637 17.8765 71.3581 17.8738C71.3565 17.8729 71.3548 17.8721 71.3531 17.8712C71.3514 17.8704 71.3497 17.8695 71.348 17.8686C71.3448 17.8671 71.3407 17.865 71.3375 17.8634C71.3283 17.8588 71.3359 17.8626 71.3266 17.858C71.3166 17.8529 71.3257 17.8575 71.3155 17.8524C71.3112 17.8502 71.3085 17.8489 71.3041 17.8466C71.2761 17.8327 71.3086 17.8489 71.2803 17.8347C71.2539 17.8215 71.282 17.8356 71.2553 17.8222C71.2531 17.8211 71.251 17.82 71.2488 17.819C71.2467 17.8179 71.2445 17.8168 71.2423 17.8157C71.2401 17.8146 71.2379 17.8135 71.2357 17.8124C71.2335 17.8113 71.2313 17.8102 71.2291 17.809C71.2216 17.8053 71.2231 17.806 71.2155 17.8023C71.2132 17.8011 71.2109 17.8 71.2086 17.7988C71.2063 17.7976 71.204 17.7965 71.2017 17.7953C71.2017 17.7953 71.1877 17.7883 71.1875 17.7882C71.1757 17.7823 71.1851 17.787 71.1731 17.781C71.1188 17.7538 71.1685 17.7787 71.1126 17.7507C71.0707 17.7297 71.0259 17.7072 70.9783 17.6833C70.9306 17.6594 70.8801 17.6341 70.8271 17.6075C70.8134 17.6007 70.8208 17.6044 70.807 17.5975C70.7929 17.5904 70.801 17.5945 70.7868 17.5873C70.7833 17.5856 70.7799 17.5839 70.7765 17.5822C70.7731 17.5805 70.7697 17.5788 70.7662 17.577C70.7628 17.5753 70.7593 17.5736 70.7559 17.5718C70.7524 17.5701 70.7489 17.5684 70.7455 17.5666C70.7275 17.5576 70.7215 17.5546 70.7032 17.5454C70.697 17.5423 70.6665 17.5271 70.66 17.5238C70.6095 17.4985 70.5335 17.4604 70.4782 17.4326C70.352 17.3694 70.2174 17.3019 70.0741 17.2301C69.7891 17.0872 69.4699 16.9272 69.133 16.7583C69.1032 16.7434 69.0994 16.7415 69.0695 16.7264C69.0397 16.7116 69.0673 16.7253 69.0375 16.7104C69.0322 16.7078 69.0268 16.7051 69.0215 16.7024C69.0161 16.6997 69.0108 16.697 69.0054 16.6943C68.997 16.6901 68.885 16.634 68.876 16.6295C68.8517 16.6173 68.7697 16.5762 68.7449 16.5638C68.7394 16.561 68.7339 16.5583 68.7284 16.5555C68.7229 16.5527 68.7174 16.55 68.7119 16.5472C68.694 16.5382 68.6968 16.5396 68.6788 16.5306C68.6665 16.5245 68.6579 16.5202 68.6456 16.514C68.6412 16.5118 68.6168 16.4995 68.6123 16.4973C68.5985 16.4904 68.5594 16.4708 68.5455 16.4638C68.5399 16.461 68.5343 16.4582 68.5287 16.4554C68.5231 16.4526 68.5175 16.4498 68.5119 16.447C68.5063 16.4441 68.5007 16.4413 68.4951 16.4385C68.4895 16.4357 68.4839 16.4329 68.4783 16.4301C68.4451 16.4135 68.4441 16.4129 68.4108 16.3963C68.3678 16.3747 68.3861 16.3839 68.343 16.3623C68.3373 16.3594 68.3316 16.3566 68.326 16.3537C68.3203 16.3509 68.3146 16.3481 68.309 16.3452C68.3059 16.3437 68.2779 16.3297 68.2749 16.3281C68.2692 16.3253 68.2635 16.3224 68.2578 16.3196C68.2521 16.3167 68.2464 16.3139 68.2407 16.311C68.235 16.3082 68.2293 16.3053 68.2236 16.3024C68.2179 16.2996 68.2122 16.2967 68.2065 16.2939C68.1526 16.2668 68.1919 16.2865 68.1379 16.2594C68.1029 16.2419 68.1041 16.2425 68.069 16.2249C68.0633 16.222 68.0575 16.2192 68.0518 16.2163C68.046 16.2134 68.0402 16.2105 68.0345 16.2076C68.0287 16.2047 68.023 16.2018 68.0172 16.199C68.0114 16.1961 68.0057 16.1932 67.9999 16.1903C67.9698 16.1752 67.9608 16.1707 67.9306 16.1555C67.8666 16.1235 67.8557 16.118 67.7914 16.0858C67.7856 16.0829 67.7798 16.0799 67.774 16.077C67.7682 16.0741 67.7623 16.0712 67.7565 16.0683C67.7346 16.0573 67.7435 16.0618 67.7216 16.0508C67.7158 16.0478 67.7099 16.0449 67.7041 16.042C67.6983 16.0391 67.6924 16.0362 67.6866 16.0332C67.6808 16.0303 67.6749 16.0274 67.6691 16.0245C67.6633 16.0215 67.6574 16.0186 67.6516 16.0157C67.6458 16.0128 67.6399 16.0098 67.6341 16.0069C67.6282 16.004 67.6224 16.001 67.6166 15.9981C67.6107 15.9952 67.6049 15.9923 67.599 15.9893C67.5932 15.9864 67.5873 15.9835 67.5815 15.9805C67.5756 15.9776 67.5698 15.9747 67.5639 15.9717C67.5581 15.9688 67.5522 15.9659 67.5464 15.9629C67.5128 15.9461 67.5448 15.9621 67.5113 15.9453C67.4629 15.9211 67.4893 15.9343 67.4409 15.9101C67.4351 15.9071 67.4292 15.9042 67.4233 15.9013C67.4175 15.8983 67.4116 15.8954 67.4057 15.8924C67.3907 15.8849 67.3856 15.8823 67.3705 15.8748C67.3646 15.8718 67.3588 15.8689 67.3529 15.8659C67.347 15.863 67.3412 15.8601 67.3353 15.8571C67.3294 15.8542 67.3235 15.8512 67.3177 15.8483C67.3118 15.8453 67.3059 15.8424 67.3 15.8394C67.2942 15.8365 67.2883 15.8336 67.2824 15.8306C67.2765 15.8277 67.2707 15.8247 67.2648 15.8218C67.2246 15.8016 67.2697 15.8243 67.2295 15.8041C67.217 15.7978 67.1009 15.7396 67.0884 15.7333C67.0825 15.7304 67.0766 15.7274 67.0707 15.7245C67.0648 15.7215 67.059 15.7186 67.0531 15.7156C67.0472 15.7127 67.0413 15.7098 67.0354 15.7068C67.0296 15.7039 67.0237 15.7009 67.0178 15.698C67.0083 15.6932 66.992 15.685 66.9825 15.6803C66.9445 15.6612 66.9852 15.6816 66.9472 15.6626C66.9413 15.6596 66.9355 15.6567 66.9296 15.6537C66.9237 15.6508 66.9178 15.6478 66.9119 15.6449C66.9083 15.6431 66.8803 15.629 66.8767 15.6272C66.8591 15.6184 66.859 15.6184 66.8414 15.6095C66.8006 15.5891 66.847 15.6124 66.8062 15.5919C66.7807 15.5791 66.6908 15.534 66.6654 15.5213C66.6078 15.4924 66.6527 15.515 66.5951 15.4861C66.5893 15.4831 66.5834 15.4802 66.5776 15.4773C66.5717 15.4743 66.5659 15.4714 66.56 15.4685C66.5542 15.4656 66.5483 15.4626 66.5425 15.4597C66.5367 15.4568 66.5308 15.4538 66.525 15.4509C66.4756 15.4262 66.5043 15.4405 66.4549 15.4158C66.4491 15.4129 66.4433 15.41 66.4375 15.407C66.4316 15.4041 66.4258 15.4012 66.42 15.3983C66.4142 15.3954 66.4083 15.3924 66.4025 15.3895C66.3967 15.3866 66.3909 15.3837 66.3851 15.3808C66.32 15.3481 66.3106 15.3435 66.2458 15.3109C66.24 15.308 66.2342 15.3051 66.2284 15.3022C66.2226 15.2993 66.2168 15.2964 66.211 15.2935C66.2053 15.2906 66.1995 15.2877 66.1937 15.2848C66.1879 15.282 66.1822 15.2791 66.1764 15.2762C66.1706 15.2733 66.1648 15.2704 66.1591 15.2675C66.1533 15.2646 66.1475 15.2617 66.1418 15.2588C66.1302 15.253 66.1187 15.2473 66.1072 15.2415C66.0539 15.2148 66.0915 15.2336 66.0383 15.2069C66.0325 15.204 66.0268 15.2012 66.0211 15.1983C66.0153 15.1954 66.0096 15.1926 66.0039 15.1897C65.9981 15.1868 65.9924 15.1839 65.9867 15.1811C65.981 15.1782 65.9753 15.1753 65.9696 15.1725C65.9588 15.1671 65.9118 15.1435 65.9011 15.1382C65.8954 15.1353 65.8897 15.1325 65.884 15.1296C65.8783 15.1267 65.8726 15.1239 65.867 15.1211C65.8613 15.1182 65.8556 15.1154 65.8499 15.1125C65.8442 15.1097 65.8386 15.1068 65.8329 15.104C65.8148 15.0949 65.817 15.096 65.7989 15.0869C65.7698 15.0723 65.7941 15.0845 65.765 15.0699C65.7593 15.0671 65.7537 15.0643 65.7481 15.0614C65.7424 15.0586 65.7368 15.0558 65.7311 15.053C65.707 15.0409 65.7215 15.0481 65.6974 15.036C65.6951 15.0349 65.6323 15.0034 65.6301 15.0023C65.6226 14.9986 65.5705 14.9724 65.5631 14.9687C65.5576 14.9659 65.552 14.9632 65.5464 14.9604C65.5409 14.9576 65.5353 14.9548 65.5298 14.952C65.5242 14.9492 65.5187 14.9465 65.5131 14.9437C65.5076 14.9409 65.502 14.9381 65.4965 14.9353C65.4525 14.9133 65.5073 14.9408 65.4633 14.9187C65.4522 14.9132 65.4413 14.9077 65.4303 14.9021C65.4055 14.8897 65.3231 14.8484 65.2989 14.8363C65.2935 14.8336 65.288 14.8308 65.2826 14.8281C65.2772 14.8254 65.2717 14.8227 65.2663 14.82C65.2225 14.798 65.2776 14.8256 65.2338 14.8037C65.2284 14.801 65.223 14.7983 65.2176 14.7956C65.2122 14.7928 65.2069 14.7901 65.2015 14.7874C65.1961 14.7847 65.1907 14.782 65.1853 14.7793C65.1799 14.7767 65.1746 14.774 65.1692 14.7713C65.1349 14.7541 65.1713 14.7723 65.1371 14.7552C65.1361 14.7547 65.1059 14.7395 65.105 14.7391C65.094 14.7336 65.0841 14.7286 65.0731 14.7231C65.0678 14.7204 65.0625 14.7178 65.0572 14.7151C65.0519 14.7124 65.0466 14.7098 65.0413 14.7071C65.036 14.7045 65.0307 14.7018 65.0254 14.6992C65.0201 14.6965 65.0149 14.6939 65.0096 14.6913C64.9905 14.6817 64.9971 14.685 64.978 14.6754C64.9728 14.6728 64.9675 14.6702 64.9623 14.6675C64.957 14.6649 64.9518 14.6623 64.9466 14.6597C64.9413 14.657 64.9361 14.6544 64.9309 14.6518C64.9257 14.6492 64.9205 14.6466 64.9152 14.644C64.8766 14.6246 64.8914 14.632 64.853 14.6127C64.8478 14.6102 64.8426 14.6076 64.8375 14.605C64.8323 14.6024 64.8272 14.5998 64.822 14.5972C64.8073 14.5898 64.806 14.5892 64.7912 14.5818L64.3431 15.4758ZM77.5 16.907V79H78.5V16.907H77.5ZM3.46322 48.8861L9.61993 33.735L8.6935 33.3585L2.53678 48.5096L3.46322 48.8861ZM9.65672 33.5468V30.4964H8.65672V33.5468H9.65672ZM11.1567 28.9964H24.2687V27.9964H11.1567V28.9964ZM24.7687 28.4964V18.2686H23.7687V28.4964H24.7687ZM24.2687 28.9964H30.1045V27.9964H24.2687V28.9964ZM31.6045 30.4964V33.5468H32.6045V30.4964H31.6045ZM32.1045 33.0468H9.15672V34.0468H32.1045V33.0468ZM31.6474 33.3441L24.931 48.4952L25.8452 48.9005L32.5616 33.7494L31.6474 33.3441ZM25.3881 48.1978H3V49.1978H25.3881V48.1978ZM25.3881 78.5H5V79.5H25.3881V78.5ZM3.5 77V73.3885H2.5V77H3.5ZM3.5 73.3885V48.6978H2.5V73.3885H3.5ZM24.8881 48.6978V73.3885H25.8881V48.6978H24.8881ZM24.8881 73.3885V79H25.8881V73.3885H24.8881ZM3 73.8885H25.3881V72.8885H3V73.8885ZM31.6413 33.735L37.6508 48.524L38.5773 48.1475L32.5677 33.3585L31.6413 33.735ZM38.2612 78.5H25.3881V79.5H38.2612V78.5ZM78 78.5H64.5672V79.5H78V78.5ZM64.5672 78.5H38.2612V79.5H64.5672V78.5ZM64.0672 15.0288C64.0672 15.0776 64.0672 15.1264 64.0672 15.1753C64.0672 15.2242 64.0672 15.2732 64.0672 15.3222C64.0672 15.3712 64.0672 15.4202 64.0672 15.4694C64.0672 15.5185 64.0672 15.5676 64.0672 15.6168C64.0672 15.6661 64.0672 15.7153 64.0672 15.7646C64.0672 15.814 64.0672 15.8633 64.0672 15.9127C64.0672 15.9622 64.0672 16.0116 64.0672 16.0612C64.0672 16.1107 64.0672 16.1603 64.0672 16.2099C64.0672 16.2595 64.0672 16.3092 64.0672 16.3589C64.0672 16.4086 64.0672 16.4584 64.0672 16.5082C64.0672 16.558 64.0672 16.6079 64.0672 16.6578C64.0672 16.7078 64.0672 16.7577 64.0672 16.8077C64.0672 16.8578 64.0672 16.9078 64.0672 16.9579C64.0672 17.0081 64.0672 17.0582 64.0672 17.1084C64.0672 17.1587 64.0672 17.2089 64.0672 17.2592C64.0672 17.3095 64.0672 17.3599 64.0672 17.4103C64.0672 17.4607 64.0672 17.5111 64.0672 17.5616C64.0672 17.6121 64.0672 17.6627 64.0672 17.7133C64.0672 17.7639 64.0672 17.8145 64.0672 17.8652C64.0672 17.9159 64.0672 17.9666 64.0672 18.0174C64.0672 18.0681 64.0672 18.1189 64.0672 18.1698C64.0672 18.2207 64.0672 18.2716 64.0672 18.3225C64.0672 18.3735 64.0672 18.4245 64.0672 18.4755C64.0672 18.5266 64.0672 18.5777 64.0672 18.6288C64.0672 18.6799 64.0672 18.7311 64.0672 18.7823C64.0672 18.8335 64.0672 18.8848 64.0672 18.9361C64.0672 18.9874 64.0672 19.0387 64.0672 19.0901C64.0672 19.1415 64.0672 19.193 64.0672 19.2444C64.0672 19.2959 64.0672 19.3474 64.0672 19.399C64.0672 19.4506 64.0672 19.5022 64.0672 19.5538C64.0672 19.6054 64.0672 19.6571 64.0672 19.7089C64.0672 19.7606 64.0672 19.8124 64.0672 19.8642C64.0672 19.916 64.0672 19.9678 64.0672 20.0197C64.0672 20.0716 64.0672 20.1235 64.0672 20.1755C64.0672 20.2275 64.0672 20.2795 64.0672 20.3315C64.0672 20.3836 64.0672 20.4357 64.0672 20.4878C64.0672 20.5399 64.0672 20.5921 64.0672 20.6443C64.0672 20.6965 64.0672 20.7488 64.0672 20.801C64.0672 20.8533 64.0672 20.9056 64.0672 20.958C64.0672 21.0104 64.0672 21.0628 64.0672 21.1152C64.0672 21.1676 64.0672 21.2201 64.0672 21.2726C64.0672 21.3251 64.0672 21.3777 64.0672 21.4303C64.0672 21.4829 64.0672 21.5355 64.0672 21.5881C64.0672 21.6408 64.0672 21.6935 64.0672 21.7462C64.0672 21.799 64.0672 21.8517 64.0672 21.9045C64.0672 21.9573 64.0672 22.0102 64.0672 22.063C64.0672 22.1159 64.0672 22.1688 64.0672 22.2218C64.0672 22.2747 64.0672 22.3277 64.0672 22.3807C64.0672 22.4337 64.0672 22.4868 64.0672 22.5398C64.0672 22.5929 64.0672 22.646 64.0672 22.6992C64.0672 22.7523 64.0672 22.8055 64.0672 22.8587C64.0672 22.912 64.0672 22.9652 64.0672 23.0185C64.0672 23.0718 64.0672 23.1251 64.0672 23.1784C64.0672 23.2318 64.0672 23.2852 64.0672 23.3386C64.0672 23.392 64.0672 23.4454 64.0672 23.4989C64.0672 23.5524 64.0672 23.6059 64.0672 23.6594C64.0672 23.713 64.0672 23.7665 64.0672 23.8201C64.0672 23.8738 64.0672 23.9274 64.0672 23.981C64.0672 24.0347 64.0672 24.0884 64.0672 24.1421C64.0672 24.1959 64.0672 24.2496 64.0672 24.3034C64.0672 24.3572 64.0672 24.411 64.0672 24.4648C64.0672 24.5187 64.0672 24.5725 64.0672 24.6264C64.0672 24.6803 64.0672 24.7343 64.0672 24.7882C64.0672 24.8422 64.0672 24.8962 64.0672 24.9502C64.0672 25.0042 64.0672 25.0583 64.0672 25.1123C64.0672 25.1664 64.0672 25.2205 64.0672 25.2746C64.0672 25.3288 64.0672 25.3829 64.0672 25.4371C64.0672 25.4913 64.0672 25.5455 64.0672 25.5997C64.0672 25.6539 64.0672 25.7082 64.0672 25.7625C64.0672 25.8168 64.0672 25.8711 64.0672 25.9254C64.0672 25.9798 64.0672 26.0341 64.0672 26.0885C64.0672 26.1429 64.0672 26.1973 64.0672 26.2518C64.0672 26.3062 64.0672 26.3607 64.0672 26.4152C64.0672 26.4697 64.0672 26.5242 64.0672 26.5787C64.0672 26.6333 64.0672 26.6878 64.0672 26.7424C64.0672 26.797 64.0672 26.8516 64.0672 26.9062C64.0672 26.9609 64.0672 27.0155 64.0672 27.0702C64.0672 27.1249 64.0672 27.1796 64.0672 27.2343C64.0672 27.289 64.0672 27.3438 64.0672 27.3986C64.0672 27.4533 64.0672 27.5081 64.0672 27.563C64.0672 27.6178 64.0672 27.6726 64.0672 27.7275C64.0672 27.7823 64.0672 27.8372 64.0672 27.8921C64.0672 27.947 64.0672 28.0019 64.0672 28.0569C64.0672 28.1118 64.0672 28.1668 64.0672 28.2218C64.0672 28.2767 64.0672 28.3317 64.0672 28.3868C64.0672 28.4418 64.0672 28.4968 64.0672 28.5519C64.0672 28.607 64.0672 28.6621 64.0672 28.7172C64.0672 28.7723 64.0672 28.8274 64.0672 28.8825C64.0672 28.9377 64.0672 28.9928 64.0672 29.048C64.0672 29.1032 64.0672 29.1584 64.0672 29.2136C64.0672 29.2688 64.0672 29.324 64.0672 29.3793C64.0672 29.4345 64.0672 29.4898 64.0672 29.5451C64.0672 29.6003 64.0672 29.6556 64.0672 29.711C64.0672 29.7663 64.0672 29.8216 64.0672 29.877C64.0672 29.9323 64.0672 29.9877 64.0672 30.0431C64.0672 30.0984 64.0672 30.1538 64.0672 30.2093C64.0672 30.2647 64.0672 30.3201 64.0672 30.3755C64.0672 30.431 64.0672 30.4864 64.0672 30.5419C64.0672 30.5974 64.0672 30.6529 64.0672 30.7084C64.0672 30.7639 64.0672 30.8194 64.0672 30.8749C64.0672 30.9305 64.0672 30.986 64.0672 31.0416C64.0672 31.0971 64.0672 31.1527 64.0672 31.2083C64.0672 31.2639 64.0672 31.3195 64.0672 31.3751C64.0672 31.4307 64.0672 31.4863 64.0672 31.542C64.0672 31.5976 64.0672 31.6532 64.0672 31.7089C64.0672 31.7646 64.0672 31.8202 64.0672 31.8759C64.0672 31.9316 64.0672 31.9873 64.0672 32.043C64.0672 32.0987 64.0672 32.1544 64.0672 32.2102C64.0672 32.2659 64.0672 32.3216 64.0672 32.3774C64.0672 32.4331 64.0672 32.4889 64.0672 32.5447C64.0672 32.6004 64.0672 32.6562 64.0672 32.712C64.0672 32.7678 64.0672 32.8236 64.0672 32.8794C64.0672 32.9352 64.0672 32.991 64.0672 33.0469C64.0672 33.1027 64.0672 33.1585 64.0672 33.2144C64.0672 33.2702 64.0672 33.3261 64.0672 33.3819C64.0672 33.4378 64.0672 33.4937 64.0672 33.5495C64.0672 33.6054 64.0672 33.6613 64.0672 33.7172C64.0672 33.7731 64.0672 33.829 64.0672 33.8849C64.0672 33.9408 64.0672 33.9967 64.0672 34.0526C64.0672 34.1085 64.0672 34.1645 64.0672 34.2204C64.0672 34.2763 64.0672 34.3323 64.0672 34.3882C64.0672 34.4441 64.0672 34.5001 64.0672 34.556C64.0672 34.612 64.0672 34.668 64.0672 34.7239C64.0672 34.7799 64.0672 34.8359 64.0672 34.8918C64.0672 34.9478 64.0672 35.0038 64.0672 35.0598C64.0672 35.1157 64.0672 35.1717 64.0672 35.2277C64.0672 35.2837 64.0672 35.3397 64.0672 35.3957C64.0672 35.4517 64.0672 35.5077 64.0672 35.5637C64.0672 35.6197 64.0672 35.6757 64.0672 35.7317C64.0672 35.7877 64.0672 35.8437 64.0672 35.8997C64.0672 35.9558 64.0672 36.0118 64.0672 36.0678C64.0672 36.1238 64.0672 36.1798 64.0672 36.2358C64.0672 36.2919 64.0672 36.3479 64.0672 36.4039C64.0672 36.4599 64.0672 36.5159 64.0672 36.572C64.0672 36.628 64.0672 36.684 64.0672 36.74C64.0672 36.7961 64.0672 36.8521 64.0672 36.9081C64.0672 36.9641 64.0672 37.0202 64.0672 37.0762C64.0672 37.1322 64.0672 37.1882 64.0672 37.2443C64.0672 37.3003 64.0672 37.3563 64.0672 37.4123C64.0672 37.4683 64.0672 37.5243 64.0672 37.5804C64.0672 37.6364 64.0672 37.6924 64.0672 37.7484C64.0672 37.8044 64.0672 37.8604 64.0672 37.9164C64.0672 37.9724 64.0672 38.0284 64.0672 38.0844C64.0672 38.1404 64.0672 38.1964 64.0672 38.2524C64.0672 38.3084 64.0672 38.3644 64.0672 38.4204C64.0672 38.4764 64.0672 38.5324 64.0672 38.5883C64.0672 38.6443 64.0672 38.7003 64.0672 38.7563C64.0672 38.8122 64.0672 38.8682 64.0672 38.9242C64.0672 38.9801 64.0672 39.0361 64.0672 39.092C64.0672 39.148 64.0672 39.2039 64.0672 39.2599C64.0672 39.3158 64.0672 39.3717 64.0672 39.4277C64.0672 39.4836 64.0672 39.5395 64.0672 39.5954C64.0672 39.6513 64.0672 39.7072 64.0672 39.7631C64.0672 39.819 64.0672 39.8749 64.0672 39.9308C64.0672 39.9867 64.0672 40.0426 64.0672 40.0985C64.0672 40.1543 64.0672 40.2102 64.0672 40.2661C64.0672 40.3219 64.0672 40.3778 64.0672 40.4336C64.0672 40.4894 64.0672 40.5453 64.0672 40.6011C64.0672 40.6569 64.0672 40.7127 64.0672 40.7685C64.0672 40.8243 64.0672 40.8801 64.0672 40.9359C64.0672 40.9917 64.0672 41.0475 64.0672 41.1032C64.0672 41.159 64.0672 41.2147 64.0672 41.2705C64.0672 41.3262 64.0672 41.382 64.0672 41.4377C64.0672 41.4934 64.0672 41.5491 64.0672 41.6048C64.0672 41.6605 64.0672 41.7162 64.0672 41.7719C64.0672 41.8275 64.0672 41.8832 64.0672 41.9389C64.0672 41.9945 64.0672 42.0502 64.0672 42.1058C64.0672 42.1614 64.0672 42.217 64.0672 42.2726C64.0672 42.3282 64.0672 42.3838 64.0672 42.4394C64.0672 42.495 64.0672 42.5505 64.0672 42.6061C64.0672 42.6616 64.0672 42.7172 64.0672 42.7727C64.0672 42.8282 64.0672 42.8837 64.0672 42.9392C64.0672 42.9947 64.0672 43.0502 64.0672 43.1056C64.0672 43.1611 64.0672 43.2166 64.0672 43.272C64.0672 43.3274 64.0672 43.3828 64.0672 43.4382C64.0672 43.4936 64.0672 43.549 64.0672 43.6044C64.0672 43.6598 64.0672 43.7151 64.0672 43.7705C64.0672 43.8258 64.0672 43.8811 64.0672 43.9364C64.0672 43.9917 64.0672 44.047 64.0672 44.1023C64.0672 44.1576 64.0672 44.2128 64.0672 44.2681C64.0672 44.3233 64.0672 44.3785 64.0672 44.4337C64.0672 44.4889 64.0672 44.5441 64.0672 44.5992C64.0672 44.6544 64.0672 44.7096 64.0672 44.7647C64.0672 44.8198 64.0672 44.8749 64.0672 44.93C64.0672 44.9851 64.0672 45.0402 64.0672 45.0952C64.0672 45.1503 64.0672 45.2053 64.0672 45.2603C64.0672 45.3153 64.0672 45.3703 64.0672 45.4253C64.0672 45.4802 64.0672 45.5352 64.0672 45.5901C64.0672 45.645 64.0672 45.7 64.0672 45.7548C64.0672 45.8097 64.0672 45.8646 64.0672 45.9194C64.0672 45.9743 64.0672 46.0291 64.0672 46.0839C64.0672 46.1387 64.0672 46.1935 64.0672 46.2482C64.0672 46.303 64.0672 46.3577 64.0672 46.4124C64.0672 46.4671 64.0672 46.5218 64.0672 46.5765C64.0672 46.6312 64.0672 46.6858 64.0672 46.7404C64.0672 46.795 64.0672 46.8496 64.0672 46.9042C64.0672 46.9588 64.0672 47.0133 64.0672 47.0678C64.0672 47.1224 64.0672 47.1769 64.0672 47.2313C64.0672 47.2858 64.0672 47.3402 64.0672 47.3947C64.0672 47.4491 64.0672 47.5035 64.0672 47.5579C64.0672 47.6122 64.0672 47.6666 64.0672 47.7209C64.0672 47.7752 64.0672 47.8295 64.0672 47.8838C64.0672 47.9381 64.0672 47.9923 64.0672 48.0465C64.0672 48.1007 64.0672 48.1549 64.0672 48.2091C64.0672 48.2632 64.0672 48.3174 64.0672 48.3715C64.0672 48.4256 64.0672 48.4797 64.0672 48.5337C64.0672 48.5878 64.0672 48.6418 64.0672 48.6958C64.0672 48.7498 64.0672 48.8037 64.0672 48.8577C64.0672 48.9116 64.0672 48.9655 64.0672 49.0194C64.0672 49.0733 64.0672 49.1271 64.0672 49.181C64.0672 49.2348 64.0672 49.2886 64.0672 49.3423C64.0672 49.3961 64.0672 49.4498 64.0672 49.5035C64.0672 49.5572 64.0672 49.6109 64.0672 49.6646C64.0672 49.7182 64.0672 49.7718 64.0672 49.8254C64.0672 49.879 64.0672 49.9325 64.0672 49.986C64.0672 50.0396 64.0672 50.093 64.0672 50.1465C64.0672 50.1999 64.0672 50.2534 64.0672 50.3068C64.0672 50.3601 64.0672 50.4135 64.0672 50.4668C64.0672 50.5201 64.0672 50.5734 64.0672 50.6267C64.0672 50.68 64.0672 50.7332 64.0672 50.7864C64.0672 50.8396 64.0672 50.8927 64.0672 50.9459C64.0672 50.999 64.0672 51.0521 64.0672 51.1051C64.0672 51.1582 64.0672 51.2112 64.0672 51.2642C64.0672 51.3172 64.0672 51.3701 64.0672 51.4231C64.0672 51.476 64.0672 51.5289 64.0672 51.5817C64.0672 51.6346 64.0672 51.6874 64.0672 51.7402C64.0672 51.7929 64.0672 51.8457 64.0672 51.8984C64.0672 51.9511 64.0672 52.0037 64.0672 52.0564C64.0672 52.109 64.0672 52.1616 64.0672 52.2142C64.0672 52.2667 64.0672 52.3192 64.0672 52.3717C64.0672 52.4242 64.0672 52.4767 64.0672 52.5291C64.0672 52.5815 64.0672 52.6339 64.0672 52.6862C64.0672 52.7385 64.0672 52.7908 64.0672 52.8431C64.0672 52.8953 64.0672 52.9475 64.0672 52.9997C64.0672 53.0519 64.0672 53.104 64.0672 53.1561C64.0672 53.2082 64.0672 53.2603 64.0672 53.3123C64.0672 53.3643 64.0672 53.4163 64.0672 53.4683C64.0672 53.5202 64.0672 53.5721 64.0672 53.624C64.0672 53.6758 64.0672 53.7277 64.0672 53.7794C64.0672 53.8312 64.0672 53.883 64.0672 53.9347C64.0672 53.9864 64.0672 54.038 64.0672 54.0896C64.0672 54.1412 64.0672 54.1928 64.0672 54.2443C64.0672 54.2959 64.0672 54.3474 64.0672 54.3988C64.0672 54.4502 64.0672 54.5016 64.0672 54.553C64.0672 54.6044 64.0672 54.6557 64.0672 54.707C64.0672 54.7582 64.0672 54.8095 64.0672 54.8607C64.0672 54.9118 64.0672 54.963 64.0672 55.0141C64.0672 55.0652 64.0672 55.1162 64.0672 55.1672C64.0672 55.2183 64.0672 55.2692 64.0672 55.3201C64.0672 55.3711 64.0672 55.4219 64.0672 55.4728C64.0672 55.5236 64.0672 55.5744 64.0672 55.6251C64.0672 55.6759 64.0672 55.7266 64.0672 55.7772C64.0672 55.8279 64.0672 55.8785 64.0672 55.929C64.0672 55.9796 64.0672 56.0301 64.0672 56.0805C64.0672 56.131 64.0672 56.1814 64.0672 56.2318C64.0672 56.2822 64.0672 56.3325 64.0672 56.3828C64.0672 56.433 64.0672 56.4833 64.0672 56.5334C64.0672 56.5836 64.0672 56.6337 64.0672 56.6838C64.0672 56.7339 64.0672 56.7839 64.0672 56.8339C64.0672 56.8839 64.0672 56.9338 64.0672 56.9837C64.0672 57.0336 64.0672 57.0835 64.0672 57.1332C64.0672 57.183 64.0672 57.2328 64.0672 57.2825C64.0672 57.3321 64.0672 57.3818 64.0672 57.4314C64.0672 57.4809 64.0672 57.5305 64.0672 57.58C64.0672 57.6295 64.0672 57.6789 64.0672 57.7283C64.0672 57.7777 64.0672 57.827 64.0672 57.8763C64.0672 57.9256 64.0672 57.9748 64.0672 58.024C64.0672 58.0731 64.0672 58.1223 64.0672 58.1713C64.0672 58.2204 64.0672 58.2694 64.0672 58.3184C64.0672 58.3674 64.0672 58.4163 64.0672 58.4651C64.0672 58.514 64.0672 58.5628 64.0672 58.6116C64.0672 58.6603 64.0672 58.709 64.0672 58.7577C64.0672 58.8063 64.0672 58.8549 64.0672 58.9035C64.0672 58.952 64.0672 59.0005 64.0672 59.0489C64.0672 59.0973 64.0672 59.1457 64.0672 59.194C64.0672 59.2424 64.0672 59.2906 64.0672 59.3388C64.0672 59.387 64.0672 59.4352 64.0672 59.4833C64.0672 59.5314 64.0672 59.5794 64.0672 59.6274C64.0672 59.6754 64.0672 59.7233 64.0672 59.7712C64.0672 59.8191 64.0672 59.8669 64.0672 59.9147C64.0672 59.9624 64.0672 60.0101 64.0672 60.0578C64.0672 60.1054 64.0672 60.153 64.0672 60.2005C64.0672 60.248 64.0672 60.2955 64.0672 60.3429C64.0672 60.3903 64.0672 60.4377 64.0672 60.485C64.0672 60.5323 64.0672 60.5795 64.0672 60.6267C64.0672 60.6739 64.0672 60.721 64.0672 60.7681C64.0672 60.8151 64.0672 60.8621 64.0672 60.9091C64.0672 60.956 64.0672 61.0029 64.0672 61.0497C64.0672 61.0965 64.0672 61.1433 64.0672 61.19C64.0672 61.2367 64.0672 61.2833 64.0672 61.3299C64.0672 61.3765 64.0672 61.423 64.0672 61.4694C64.0672 61.5159 64.0672 61.5623 64.0672 61.6086C64.0672 61.6549 64.0672 61.7012 64.0672 61.7474C64.0672 61.7936 64.0672 61.8398 64.0672 61.8859C64.0672 61.9319 64.0672 61.978 64.0672 62.0239C64.0672 62.0699 64.0672 62.1158 64.0672 62.1616C64.0672 62.2074 64.0672 62.2532 64.0672 62.2989C64.0672 62.3446 64.0672 62.3902 64.0672 62.4358C64.0672 62.4814 64.0672 62.5269 64.0672 62.5723C64.0672 62.6178 64.0672 62.6632 64.0672 62.7085C64.0672 62.7538 64.0672 62.799 64.0672 62.8442C64.0672 62.8894 64.0672 62.9345 64.0672 62.9796C64.0672 63.0246 64.0672 63.0696 64.0672 63.1146C64.0672 63.1595 64.0672 63.2043 64.0672 63.2491C64.0672 63.2939 64.0672 63.3386 64.0672 63.3833C64.0672 63.4279 64.0672 63.4725 64.0672 63.5171C64.0672 63.5616 64.0672 63.606 64.0672 63.6504C64.0672 63.6948 64.0672 63.7391 64.0672 63.7834C64.0672 63.8276 64.0672 63.8718 64.0672 63.9159C64.0672 63.96 64.0672 64.0041 64.0672 64.048C64.0672 64.092 64.0672 64.1359 64.0672 64.1798C64.0672 64.2236 64.0672 64.2674 64.0672 64.3111C64.0672 64.3548 64.0672 64.3984 64.0672 64.442C64.0672 64.4855 64.0672 64.529 64.0672 64.5724C64.0672 64.6158 64.0672 64.6592 64.0672 64.7025C64.0672 64.7457 64.0672 64.7889 64.0672 64.8321C64.0672 64.8752 64.0672 64.9183 64.0672 64.9613C64.0672 65.0043 64.0672 65.0472 64.0672 65.09C64.0672 65.1329 64.0672 65.1757 64.0672 65.2184C64.0672 65.2611 64.0672 65.3037 64.0672 65.3462C64.0672 65.3888 64.0672 65.4313 64.0672 65.4737C64.0672 65.5161 64.0672 65.5584 64.0672 65.6007C64.0672 65.643 64.0672 65.6852 64.0672 65.7273C64.0672 65.7694 64.0672 65.8114 64.0672 65.8534C64.0672 65.8954 64.0672 65.9373 64.0672 65.9791C64.0672 66.0209 64.0672 66.0626 64.0672 66.1043C64.0672 66.146 64.0672 66.1876 64.0672 66.2291C64.0672 66.2706 64.0672 66.312 64.0672 66.3534C64.0672 66.3948 64.0672 66.4361 64.0672 66.4773C64.0672 66.5185 64.0672 66.5596 64.0672 66.6007C64.0672 66.6417 64.0672 66.6827 64.0672 66.7236C64.0672 66.7645 64.0672 66.8054 64.0672 66.8461C64.0672 66.8869 64.0672 66.9275 64.0672 66.9681C64.0672 67.0087 64.0672 67.0492 64.0672 67.0897C64.0672 67.1301 64.0672 67.1705 64.0672 67.2108C64.0672 67.251 64.0672 67.2912 64.0672 67.3314C64.0672 67.3715 64.0672 67.4115 64.0672 67.4515C64.0672 67.4914 64.0672 67.5313 64.0672 67.5711C64.0672 67.6109 64.0672 67.6507 64.0672 67.6903C64.0672 67.7299 64.0672 67.7695 64.0672 67.809C64.0672 67.8485 64.0672 67.8879 64.0672 67.9272C64.0672 67.9665 64.0672 68.0058 64.0672 68.0449C64.0672 68.0841 64.0672 68.1232 64.0672 68.1621C64.0672 68.2011 64.0672 68.2401 64.0672 68.2789C64.0672 68.3177 64.0672 68.3565 64.0672 68.3951C64.0672 68.4338 64.0672 68.4724 64.0672 68.5109C64.0672 68.5494 64.0672 68.5878 64.0672 68.6261C64.0672 68.6644 64.0672 68.7027 64.0672 68.7409C64.0672 68.779 64.0672 68.8171 64.0672 68.8551C64.0672 68.8931 64.0672 68.931 64.0672 68.9688C64.0672 69.0067 64.0672 69.0444 64.0672 69.0821C64.0672 69.1197 64.0672 69.1573 64.0672 69.1948C64.0672 69.2322 64.0672 69.2697 64.0672 69.307C64.0672 69.3443 64.0672 69.3815 64.0672 69.4186C64.0672 69.4558 64.0672 69.4928 64.0672 69.5298C64.0672 69.5668 64.0672 69.6037 64.0672 69.6405C64.0672 69.6773 64.0672 69.714 64.0672 69.7506C64.0672 69.7872 64.0672 69.8237 64.0672 69.8602C64.0672 69.8966 64.0672 69.933 64.0672 69.9693C64.0672 70.0055 64.0672 70.0417 64.0672 70.0778C64.0672 70.1139 64.0672 70.1499 64.0672 70.1858C64.0672 70.2217 64.0672 70.2575 64.0672 70.2933C64.0672 70.329 64.0672 70.3647 64.0672 70.4002C64.0672 70.4358 64.0672 70.4712 64.0672 70.5066C64.0672 70.542 64.0672 70.5773 64.0672 70.6125C64.0672 70.6477 64.0672 70.6828 64.0672 70.7178C64.0672 70.7528 64.0672 70.7877 64.0672 70.8225C64.0672 70.8574 64.0672 70.8921 64.0672 70.9268C64.0672 70.9614 64.0672 70.996 64.0672 71.0304C64.0672 71.0649 64.0672 71.0993 64.0672 71.1335C64.0672 71.1678 64.0672 71.202 64.0672 71.2361C64.0672 71.2702 64.0672 71.3042 64.0672 71.3381C64.0672 71.372 64.0672 71.4058 64.0672 71.4395C64.0672 71.4732 64.0672 71.5069 64.0672 71.5404C64.0672 71.5739 64.0672 71.6074 64.0672 71.6407C64.0672 71.674 64.0672 71.7073 64.0672 71.7404C64.0672 71.7736 64.0672 71.8066 64.0672 71.8396C64.0672 71.8726 64.0672 71.9054 64.0672 71.9382C64.0672 71.971 64.0672 72.0037 64.0672 72.0362C64.0672 72.0688 64.0672 72.1013 64.0672 72.1337C64.0672 72.1661 64.0672 72.1983 64.0672 72.2305C64.0672 72.2627 64.0672 72.2948 64.0672 72.3268C64.0672 72.3588 64.0672 72.3907 64.0672 72.4225C64.0672 72.4543 64.0672 72.486 64.0672 72.5176C64.0672 72.5492 64.0672 72.5807 64.0672 72.6122C64.0672 72.6436 64.0672 72.6749 64.0672 72.7061C64.0672 72.7373 64.0672 72.7684 64.0672 72.7994C64.0672 72.8304 64.0672 72.8614 64.0672 72.8922C64.0672 72.923 64.0672 72.9537 64.0672 72.9843C64.0672 73.0149 64.0672 73.0454 64.0672 73.0759C64.0672 73.1063 64.0672 73.1366 64.0672 73.1668C64.0672 73.197 64.0672 73.2271 64.0672 73.2571C64.0672 73.2871 64.0672 73.317 64.0672 73.3468C64.0672 73.3767 64.0672 73.4064 64.0672 73.436C64.0672 73.4656 64.0672 73.4951 64.0672 73.5245C64.0672 73.5539 64.0672 73.5832 64.0672 73.6124C64.0672 73.6415 64.0672 73.6706 64.0672 73.6996C64.0672 73.7286 64.0672 73.7575 64.0672 73.7863C64.0672 73.815 64.0672 73.8437 64.0672 73.8723C64.0672 73.9009 64.0672 73.9293 64.0672 73.9577C64.0672 73.9861 64.0672 74.0143 64.0672 74.0425C64.0672 74.0706 64.0672 74.0987 64.0672 74.1266C64.0672 74.1546 64.0672 74.1824 64.0672 74.2101C64.0672 74.2379 64.0672 74.2655 64.0672 74.293C64.0672 74.3205 64.0672 74.3479 64.0672 74.3752C64.0672 74.4026 64.0672 74.4298 64.0672 74.4568C64.0672 74.4839 64.0672 74.5109 64.0672 74.5378C64.0672 74.5647 64.0672 74.5915 64.0672 74.6181C64.0672 74.6448 64.0672 74.6714 64.0672 74.6978C64.0672 74.7243 64.0672 74.7506 64.0672 74.7768C64.0672 74.8031 64.0672 74.8292 64.0672 74.8552C64.0672 74.8812 64.0672 74.9071 64.0672 74.9329C64.0672 74.9587 64.0672 74.9844 64.0672 75.01C64.0672 75.0356 64.0672 75.061 64.0672 75.0864C64.0672 75.1118 64.0672 75.137 64.0672 75.1621C64.0672 75.1873 64.0672 75.2123 64.0672 75.2372C64.0672 75.2621 64.0672 75.2869 64.0672 75.3116C64.0672 75.3363 64.0672 75.3609 64.0672 75.3854C64.0672 75.4099 64.0672 75.4342 64.0672 75.4585C64.0672 75.4827 64.0672 75.5069 64.0672 75.5309C64.0672 75.5549 64.0672 75.5788 64.0672 75.6026C64.0672 75.6264 64.0672 75.6501 64.0672 75.6737C64.0672 75.6973 64.0672 75.7207 64.0672 75.7441C64.0672 75.7674 64.0672 75.7906 64.0672 75.8138C64.0672 75.8369 64.0672 75.8599 64.0672 75.8828C64.0672 75.9057 64.0672 75.9284 64.0672 75.9511C64.0672 75.9738 64.0672 75.9963 64.0672 76.0187C64.0672 76.0412 64.0672 76.0635 64.0672 76.0857C64.0672 76.1079 64.0672 76.13 64.0672 76.1519C64.0672 76.1739 64.0672 76.1958 64.0672 76.2175C64.0672 76.2392 64.0672 76.2609 64.0672 76.2824C64.0672 76.3039 64.0672 76.3253 64.0672 76.3465C64.0672 76.3678 64.0672 76.389 64.0672 76.41C64.0672 76.431 64.0672 76.4519 64.0672 76.4727C64.0672 76.4935 64.0672 76.5142 64.0672 76.5348C64.0672 76.5554 64.0672 76.5758 64.0672 76.5961C64.0672 76.6164 64.0672 76.6367 64.0672 76.6567C64.0672 76.6768 64.0672 76.6968 64.0672 76.7167C64.0672 76.7365 64.0672 76.7562 64.0672 76.7758C64.0672 76.7955 64.0672 76.8149 64.0672 76.8343C64.0672 76.8537 64.0672 76.8729 64.0672 76.8921C64.0672 76.9112 64.0672 76.9302 64.0672 76.9491C64.0672 76.968 64.0672 76.9867 64.0672 77.0054C64.0672 77.024 64.0672 77.0426 64.0672 77.061C64.0672 77.0794 64.0672 77.0976 64.0672 77.1158C64.0672 77.134 64.0672 77.152 64.0672 77.1699C64.0672 77.1878 64.0672 77.2056 64.0672 77.2233C64.0672 77.2409 64.0672 77.2585 64.0672 77.2759C64.0672 77.2933 64.0672 77.3106 64.0672 77.3278C64.0672 77.345 64.0672 77.362 64.0672 77.3789C64.0672 77.3959 64.0672 77.4127 64.0672 77.4293C64.0672 77.446 64.0672 77.4626 64.0672 77.479C64.0672 77.4954 64.0672 77.5117 64.0672 77.5279C64.0672 77.5441 64.0672 77.5601 64.0672 77.576C64.0672 77.592 64.0672 77.6078 64.0672 77.6234C64.0672 77.6391 64.0672 77.6547 64.0672 77.6701C64.0672 77.6855 64.0672 77.7008 64.0672 77.716C64.0672 77.7311 64.0672 77.7462 64.0672 77.7611C64.0672 77.776 64.0672 77.7908 64.0672 77.8054C64.0672 77.8201 64.0672 77.8346 64.0672 77.849C64.0672 77.8634 64.0672 77.8777 64.0672 77.8918C64.0672 77.906 64.0672 77.92 64.0672 77.9339C64.0672 77.9478 64.0672 77.9615 64.0672 77.9751C64.0672 77.9888 64.0672 78.0023 64.0672 78.0156C64.0672 78.029 64.0672 78.0422 64.0672 78.0554C64.0672 78.0685 64.0672 78.0814 64.0672 78.0943C64.0672 78.1071 64.0672 78.1199 64.0672 78.1324C64.0672 78.145 64.0672 78.1575 64.0672 78.1698C64.0672 78.1821 64.0672 78.1943 64.0672 78.2064C64.0672 78.2184 64.0672 78.2304 64.0672 78.2422C64.0672 78.254 64.0672 78.2656 64.0672 78.2772C64.0672 78.2887 64.0672 78.3001 64.0672 78.3114C64.0672 78.3226 64.0672 78.3338 64.0672 78.3448C64.0672 78.3558 64.0672 78.3666 64.0672 78.3774C64.0672 78.3881 64.0672 78.3987 64.0672 78.4092C64.0672 78.4196 64.0672 78.43 64.0672 78.4402C64.0672 78.4504 64.0672 78.4604 64.0672 78.4703C64.0672 78.4803 64.0672 78.4901 64.0672 78.4997C64.0672 78.5094 64.0672 78.5189 64.0672 78.5283C64.0672 78.5377 64.0672 78.5469 64.0672 78.556C64.0672 78.5652 64.0672 78.5741 64.0672 78.583C64.0672 78.5918 64.0672 78.6005 64.0672 78.6091C64.0672 78.6177 64.0672 78.6261 64.0672 78.6344C64.0672 78.6427 64.0672 78.6508 64.0672 78.6589C64.0672 78.6669 64.0672 78.6748 64.0672 78.6825C64.0672 78.6902 64.0672 78.6978 64.0672 78.7053C64.0672 78.7128 64.0672 78.7201 64.0672 78.7273C64.0672 78.7345 64.0672 78.7415 64.0672 78.7485C64.0672 78.7554 64.0672 78.7621 64.0672 78.7688C64.0672 78.7754 64.0672 78.7819 64.0672 78.7882C64.0672 78.7946 64.0672 78.8008 64.0672 78.8069C64.0672 78.813 64.0672 78.8189 64.0672 78.8247C64.0672 78.8305 64.0672 78.8361 64.0672 78.8416C64.0672 78.8471 64.0672 78.8525 64.0672 78.8577C64.0672 78.863 64.0672 78.868 64.0672 78.873C64.0672 78.8779 64.0672 78.8827 64.0672 78.8874C64.0672 78.8921 64.0672 78.8966 64.0672 78.9009C64.0672 78.9053 64.0672 78.9095 64.0672 78.9136C64.0672 78.9177 64.0672 78.9217 64.0672 78.9255C64.0672 78.9293 64.0672 78.9329 64.0672 78.9364C64.0672 78.9399 64.0672 78.9433 64.0672 78.9465C64.0672 78.9498 64.0672 78.9528 64.0672 78.9558C64.0672 78.9587 64.0672 78.9615 64.0672 78.9641C64.0672 78.9668 64.0672 78.9693 64.0672 78.9716C64.0672 78.974 64.0672 78.9762 64.0672 78.9783C64.0672 78.9803 64.0672 78.9823 64.0672 78.984C64.0672 78.9858 64.0672 78.9874 64.0672 78.9889C64.0672 78.9904 64.0672 78.9917 64.0672 78.9929C64.0672 78.9941 64.0672 78.9951 64.0672 78.996C64.0672 78.9969 64.0672 78.9976 64.0672 78.9982C64.0672 78.9988 64.0672 78.9993 64.0672 78.9996C64.0672 78.9999 64.0672 79 64.5672 79C65.0672 79 65.0672 78.9999 65.0672 78.9996C65.0672 78.9993 65.0672 78.9988 65.0672 78.9982C65.0672 78.9976 65.0672 78.9969 65.0672 78.996C65.0672 78.9951 65.0672 78.9941 65.0672 78.9929C65.0672 78.9917 65.0672 78.9904 65.0672 78.9889C65.0672 78.9874 65.0672 78.9858 65.0672 78.984C65.0672 78.9823 65.0672 78.9803 65.0672 78.9783C65.0672 78.9762 65.0672 78.974 65.0672 78.9716C65.0672 78.9693 65.0672 78.9668 65.0672 78.9641C65.0672 78.9615 65.0672 78.9587 65.0672 78.9558C65.0672 78.9528 65.0672 78.9498 65.0672 78.9465C65.0672 78.9433 65.0672 78.9399 65.0672 78.9364C65.0672 78.9329 65.0672 78.9293 65.0672 78.9255C65.0672 78.9217 65.0672 78.9177 65.0672 78.9136C65.0672 78.9095 65.0672 78.9053 65.0672 78.9009C65.0672 78.8966 65.0672 78.8921 65.0672 78.8874C65.0672 78.8827 65.0672 78.8779 65.0672 78.873C65.0672 78.868 65.0672 78.863 65.0672 78.8577C65.0672 78.8525 65.0672 78.8471 65.0672 78.8416C65.0672 78.8361 65.0672 78.8305 65.0672 78.8247C65.0672 78.8189 65.0672 78.813 65.0672 78.8069C65.0672 78.8008 65.0672 78.7946 65.0672 78.7882C65.0672 78.7819 65.0672 78.7754 65.0672 78.7688C65.0672 78.7621 65.0672 78.7554 65.0672 78.7485C65.0672 78.7415 65.0672 78.7345 65.0672 78.7273C65.0672 78.7201 65.0672 78.7128 65.0672 78.7053C65.0672 78.6978 65.0672 78.6902 65.0672 78.6825C65.0672 78.6748 65.0672 78.6669 65.0672 78.6589C65.0672 78.6508 65.0672 78.6427 65.0672 78.6344C65.0672 78.6261 65.0672 78.6177 65.0672 78.6091C65.0672 78.6005 65.0672 78.5918 65.0672 78.583C65.0672 78.5741 65.0672 78.5652 65.0672 78.556C65.0672 78.5469 65.0672 78.5377 65.0672 78.5283C65.0672 78.5189 65.0672 78.5094 65.0672 78.4997C65.0672 78.4901 65.0672 78.4803 65.0672 78.4703C65.0672 78.4604 65.0672 78.4504 65.0672 78.4402C65.0672 78.43 65.0672 78.4196 65.0672 78.4092C65.0672 78.3987 65.0672 78.3881 65.0672 78.3774C65.0672 78.3666 65.0672 78.3558 65.0672 78.3448C65.0672 78.3338 65.0672 78.3226 65.0672 78.3114C65.0672 78.3001 65.0672 78.2887 65.0672 78.2772C65.0672 78.2656 65.0672 78.254 65.0672 78.2422C65.0672 78.2304 65.0672 78.2184 65.0672 78.2064C65.0672 78.1943 65.0672 78.1821 65.0672 78.1698C65.0672 78.1575 65.0672 78.145 65.0672 78.1324C65.0672 78.1199 65.0672 78.1071 65.0672 78.0943C65.0672 78.0814 65.0672 78.0685 65.0672 78.0554C65.0672 78.0422 65.0672 78.029 65.0672 78.0156C65.0672 78.0023 65.0672 77.9888 65.0672 77.9751C65.0672 77.9615 65.0672 77.9478 65.0672 77.9339C65.0672 77.92 65.0672 77.906 65.0672 77.8918C65.0672 77.8777 65.0672 77.8634 65.0672 77.849C65.0672 77.8346 65.0672 77.8201 65.0672 77.8054C65.0672 77.7908 65.0672 77.776 65.0672 77.7611C65.0672 77.7462 65.0672 77.7311 65.0672 77.716C65.0672 77.7008 65.0672 77.6855 65.0672 77.6701C65.0672 77.6547 65.0672 77.6391 65.0672 77.6234C65.0672 77.6078 65.0672 77.592 65.0672 77.576C65.0672 77.5601 65.0672 77.5441 65.0672 77.5279C65.0672 77.5117 65.0672 77.4954 65.0672 77.479C65.0672 77.4626 65.0672 77.446 65.0672 77.4293C65.0672 77.4127 65.0672 77.3959 65.0672 77.3789C65.0672 77.362 65.0672 77.345 65.0672 77.3278C65.0672 77.3106 65.0672 77.2933 65.0672 77.2759C65.0672 77.2585 65.0672 77.2409 65.0672 77.2233C65.0672 77.2056 65.0672 77.1878 65.0672 77.1699C65.0672 77.152 65.0672 77.134 65.0672 77.1158C65.0672 77.0976 65.0672 77.0794 65.0672 77.061C65.0672 77.0426 65.0672 77.024 65.0672 77.0054C65.0672 76.9867 65.0672 76.968 65.0672 76.9491C65.0672 76.9302 65.0672 76.9112 65.0672 76.8921C65.0672 76.8729 65.0672 76.8537 65.0672 76.8343C65.0672 76.8149 65.0672 76.7955 65.0672 76.7758C65.0672 76.7562 65.0672 76.7365 65.0672 76.7167C65.0672 76.6968 65.0672 76.6768 65.0672 76.6567C65.0672 76.6367 65.0672 76.6164 65.0672 76.5961C65.0672 76.5758 65.0672 76.5554 65.0672 76.5348C65.0672 76.5142 65.0672 76.4935 65.0672 76.4727C65.0672 76.4519 65.0672 76.431 65.0672 76.41C65.0672 76.389 65.0672 76.3678 65.0672 76.3465C65.0672 76.3253 65.0672 76.3039 65.0672 76.2824C65.0672 76.2609 65.0672 76.2392 65.0672 76.2175C65.0672 76.1958 65.0672 76.1739 65.0672 76.1519C65.0672 76.13 65.0672 76.1079 65.0672 76.0857C65.0672 76.0635 65.0672 76.0412 65.0672 76.0187C65.0672 75.9963 65.0672 75.9738 65.0672 75.9511C65.0672 75.9284 65.0672 75.9057 65.0672 75.8828C65.0672 75.8599 65.0672 75.8369 65.0672 75.8138C65.0672 75.7906 65.0672 75.7674 65.0672 75.7441C65.0672 75.7207 65.0672 75.6973 65.0672 75.6737C65.0672 75.6501 65.0672 75.6264 65.0672 75.6026C65.0672 75.5788 65.0672 75.5549 65.0672 75.5309C65.0672 75.5069 65.0672 75.4827 65.0672 75.4585C65.0672 75.4342 65.0672 75.4099 65.0672 75.3854C65.0672 75.3609 65.0672 75.3363 65.0672 75.3116C65.0672 75.2869 65.0672 75.2621 65.0672 75.2372C65.0672 75.2123 65.0672 75.1873 65.0672 75.1621C65.0672 75.137 65.0672 75.1118 65.0672 75.0864C65.0672 75.061 65.0672 75.0356 65.0672 75.01C65.0672 74.9844 65.0672 74.9587 65.0672 74.9329C65.0672 74.9071 65.0672 74.8812 65.0672 74.8552C65.0672 74.8292 65.0672 74.8031 65.0672 74.7768C65.0672 74.7506 65.0672 74.7243 65.0672 74.6978C65.0672 74.6714 65.0672 74.6448 65.0672 74.6181C65.0672 74.5915 65.0672 74.5647 65.0672 74.5378C65.0672 74.5109 65.0672 74.4839 65.0672 74.4568C65.0672 74.4298 65.0672 74.4026 65.0672 74.3752C65.0672 74.3479 65.0672 74.3205 65.0672 74.293C65.0672 74.2655 65.0672 74.2379 65.0672 74.2101C65.0672 74.1824 65.0672 74.1546 65.0672 74.1266C65.0672 74.0987 65.0672 74.0706 65.0672 74.0425C65.0672 74.0143 65.0672 73.9861 65.0672 73.9577C65.0672 73.9293 65.0672 73.9009 65.0672 73.8723C65.0672 73.8437 65.0672 73.815 65.0672 73.7863C65.0672 73.7575 65.0672 73.7286 65.0672 73.6996C65.0672 73.6706 65.0672 73.6415 65.0672 73.6124C65.0672 73.5832 65.0672 73.5539 65.0672 73.5245C65.0672 73.4951 65.0672 73.4656 65.0672 73.436C65.0672 73.4064 65.0672 73.3767 65.0672 73.3468C65.0672 73.317 65.0672 73.2871 65.0672 73.2571C65.0672 73.2271 65.0672 73.197 65.0672 73.1668C65.0672 73.1366 65.0672 73.1063 65.0672 73.0759C65.0672 73.0454 65.0672 73.0149 65.0672 72.9843C65.0672 72.9537 65.0672 72.923 65.0672 72.8922C65.0672 72.8614 65.0672 72.8304 65.0672 72.7994C65.0672 72.7684 65.0672 72.7373 65.0672 72.7061C65.0672 72.6749 65.0672 72.6436 65.0672 72.6122C65.0672 72.5807 65.0672 72.5492 65.0672 72.5176C65.0672 72.486 65.0672 72.4543 65.0672 72.4225C65.0672 72.3907 65.0672 72.3588 65.0672 72.3268C65.0672 72.2948 65.0672 72.2627 65.0672 72.2305C65.0672 72.1983 65.0672 72.1661 65.0672 72.1337C65.0672 72.1013 65.0672 72.0688 65.0672 72.0362C65.0672 72.0037 65.0672 71.971 65.0672 71.9382C65.0672 71.9054 65.0672 71.8726 65.0672 71.8396C65.0672 71.8066 65.0672 71.7736 65.0672 71.7404C65.0672 71.7073 65.0672 71.674 65.0672 71.6407C65.0672 71.6074 65.0672 71.5739 65.0672 71.5404C65.0672 71.5069 65.0672 71.4732 65.0672 71.4395C65.0672 71.4058 65.0672 71.372 65.0672 71.3381C65.0672 71.3042 65.0672 71.2702 65.0672 71.2361C65.0672 71.202 65.0672 71.1678 65.0672 71.1335C65.0672 71.0993 65.0672 71.0649 65.0672 71.0304C65.0672 70.996 65.0672 70.9614 65.0672 70.9268C65.0672 70.8921 65.0672 70.8574 65.0672 70.8225C65.0672 70.7877 65.0672 70.7528 65.0672 70.7178C65.0672 70.6828 65.0672 70.6477 65.0672 70.6125C65.0672 70.5773 65.0672 70.542 65.0672 70.5066C65.0672 70.4712 65.0672 70.4358 65.0672 70.4002C65.0672 70.3647 65.0672 70.329 65.0672 70.2933C65.0672 70.2575 65.0672 70.2217 65.0672 70.1858C65.0672 70.1499 65.0672 70.1139 65.0672 70.0778C65.0672 70.0417 65.0672 70.0055 65.0672 69.9693C65.0672 69.933 65.0672 69.8966 65.0672 69.8602C65.0672 69.8237 65.0672 69.7872 65.0672 69.7506C65.0672 69.714 65.0672 69.6773 65.0672 69.6405C65.0672 69.6037 65.0672 69.5668 65.0672 69.5298C65.0672 69.4928 65.0672 69.4558 65.0672 69.4186C65.0672 69.3815 65.0672 69.3443 65.0672 69.307C65.0672 69.2697 65.0672 69.2322 65.0672 69.1948C65.0672 69.1573 65.0672 69.1197 65.0672 69.0821C65.0672 69.0444 65.0672 69.0067 65.0672 68.9688C65.0672 68.931 65.0672 68.8931 65.0672 68.8551C65.0672 68.8171 65.0672 68.779 65.0672 68.7409C65.0672 68.7027 65.0672 68.6644 65.0672 68.6261C65.0672 68.5878 65.0672 68.5494 65.0672 68.5109C65.0672 68.4724 65.0672 68.4338 65.0672 68.3951C65.0672 68.3565 65.0672 68.3177 65.0672 68.2789C65.0672 68.2401 65.0672 68.2011 65.0672 68.1621C65.0672 68.1232 65.0672 68.0841 65.0672 68.0449C65.0672 68.0058 65.0672 67.9665 65.0672 67.9272C65.0672 67.8879 65.0672 67.8485 65.0672 67.809C65.0672 67.7695 65.0672 67.7299 65.0672 67.6903C65.0672 67.6507 65.0672 67.6109 65.0672 67.5711C65.0672 67.5313 65.0672 67.4914 65.0672 67.4515C65.0672 67.4115 65.0672 67.3715 65.0672 67.3314C65.0672 67.2912 65.0672 67.251 65.0672 67.2108C65.0672 67.1705 65.0672 67.1301 65.0672 67.0897C65.0672 67.0492 65.0672 67.0087 65.0672 66.9681C65.0672 66.9275 65.0672 66.8869 65.0672 66.8461C65.0672 66.8054 65.0672 66.7645 65.0672 66.7236C65.0672 66.6827 65.0672 66.6417 65.0672 66.6007C65.0672 66.5596 65.0672 66.5185 65.0672 66.4773C65.0672 66.4361 65.0672 66.3948 65.0672 66.3534C65.0672 66.312 65.0672 66.2706 65.0672 66.2291C65.0672 66.1876 65.0672 66.146 65.0672 66.1043C65.0672 66.0626 65.0672 66.0209 65.0672 65.9791C65.0672 65.9373 65.0672 65.8954 65.0672 65.8534C65.0672 65.8114 65.0672 65.7694 65.0672 65.7273C65.0672 65.6852 65.0672 65.643 65.0672 65.6007C65.0672 65.5584 65.0672 65.5161 65.0672 65.4737C65.0672 65.4313 65.0672 65.3888 65.0672 65.3462C65.0672 65.3037 65.0672 65.2611 65.0672 65.2184C65.0672 65.1757 65.0672 65.1329 65.0672 65.09C65.0672 65.0472 65.0672 65.0043 65.0672 64.9613C65.0672 64.9183 65.0672 64.8752 65.0672 64.8321C65.0672 64.7889 65.0672 64.7457 65.0672 64.7025C65.0672 64.6592 65.0672 64.6158 65.0672 64.5724C65.0672 64.529 65.0672 64.4855 65.0672 64.442C65.0672 64.3984 65.0672 64.3548 65.0672 64.3111C65.0672 64.2674 65.0672 64.2236 65.0672 64.1798C65.0672 64.1359 65.0672 64.092 65.0672 64.048C65.0672 64.0041 65.0672 63.96 65.0672 63.9159C65.0672 63.8718 65.0672 63.8276 65.0672 63.7834C65.0672 63.7391 65.0672 63.6948 65.0672 63.6504C65.0672 63.606 65.0672 63.5616 65.0672 63.5171C65.0672 63.4725 65.0672 63.4279 65.0672 63.3833C65.0672 63.3386 65.0672 63.2939 65.0672 63.2491C65.0672 63.2043 65.0672 63.1595 65.0672 63.1146C65.0672 63.0696 65.0672 63.0246 65.0672 62.9796C65.0672 62.9345 65.0672 62.8894 65.0672 62.8442C65.0672 62.799 65.0672 62.7538 65.0672 62.7085C65.0672 62.6632 65.0672 62.6178 65.0672 62.5723C65.0672 62.5269 65.0672 62.4814 65.0672 62.4358C65.0672 62.3902 65.0672 62.3446 65.0672 62.2989C65.0672 62.2532 65.0672 62.2074 65.0672 62.1616C65.0672 62.1158 65.0672 62.0699 65.0672 62.0239C65.0672 61.978 65.0672 61.9319 65.0672 61.8859C65.0672 61.8398 65.0672 61.7936 65.0672 61.7474C65.0672 61.7012 65.0672 61.6549 65.0672 61.6086C65.0672 61.5623 65.0672 61.5159 65.0672 61.4694C65.0672 61.423 65.0672 61.3765 65.0672 61.3299C65.0672 61.2833 65.0672 61.2367 65.0672 61.19C65.0672 61.1433 65.0672 61.0965 65.0672 61.0497C65.0672 61.0029 65.0672 60.956 65.0672 60.9091C65.0672 60.8621 65.0672 60.8151 65.0672 60.7681C65.0672 60.721 65.0672 60.6739 65.0672 60.6267C65.0672 60.5795 65.0672 60.5323 65.0672 60.485C65.0672 60.4377 65.0672 60.3903 65.0672 60.3429C65.0672 60.2955 65.0672 60.248 65.0672 60.2005C65.0672 60.153 65.0672 60.1054 65.0672 60.0578C65.0672 60.0101 65.0672 59.9624 65.0672 59.9147C65.0672 59.8669 65.0672 59.8191 65.0672 59.7712C65.0672 59.7233 65.0672 59.6754 65.0672 59.6274C65.0672 59.5794 65.0672 59.5314 65.0672 59.4833C65.0672 59.4352 65.0672 59.387 65.0672 59.3388C65.0672 59.2906 65.0672 59.2424 65.0672 59.194C65.0672 59.1457 65.0672 59.0973 65.0672 59.0489C65.0672 59.0005 65.0672 58.952 65.0672 58.9035C65.0672 58.8549 65.0672 58.8063 65.0672 58.7577C65.0672 58.709 65.0672 58.6603 65.0672 58.6116C65.0672 58.5628 65.0672 58.514 65.0672 58.4651C65.0672 58.4163 65.0672 58.3674 65.0672 58.3184C65.0672 58.2694 65.0672 58.2204 65.0672 58.1713C65.0672 58.1223 65.0672 58.0731 65.0672 58.024C65.0672 57.9748 65.0672 57.9256 65.0672 57.8763C65.0672 57.827 65.0672 57.7777 65.0672 57.7283C65.0672 57.6789 65.0672 57.6295 65.0672 57.58C65.0672 57.5305 65.0672 57.4809 65.0672 57.4314C65.0672 57.3818 65.0672 57.3321 65.0672 57.2825C65.0672 57.2328 65.0672 57.183 65.0672 57.1332C65.0672 57.0835 65.0672 57.0336 65.0672 56.9837C65.0672 56.9338 65.0672 56.8839 65.0672 56.8339C65.0672 56.7839 65.0672 56.7339 65.0672 56.6838C65.0672 56.6337 65.0672 56.5836 65.0672 56.5334C65.0672 56.4833 65.0672 56.433 65.0672 56.3828C65.0672 56.3325 65.0672 56.2822 65.0672 56.2318C65.0672 56.1814 65.0672 56.131 65.0672 56.0805C65.0672 56.0301 65.0672 55.9796 65.0672 55.929C65.0672 55.8785 65.0672 55.8279 65.0672 55.7772C65.0672 55.7266 65.0672 55.6759 65.0672 55.6251C65.0672 55.5744 65.0672 55.5236 65.0672 55.4728C65.0672 55.4219 65.0672 55.3711 65.0672 55.3201C65.0672 55.2692 65.0672 55.2183 65.0672 55.1672C65.0672 55.1162 65.0672 55.0652 65.0672 55.0141C65.0672 54.963 65.0672 54.9118 65.0672 54.8607C65.0672 54.8095 65.0672 54.7582 65.0672 54.707C65.0672 54.6557 65.0672 54.6044 65.0672 54.553C65.0672 54.5016 65.0672 54.4502 65.0672 54.3988C65.0672 54.3474 65.0672 54.2959 65.0672 54.2443C65.0672 54.1928 65.0672 54.1412 65.0672 54.0896C65.0672 54.038 65.0672 53.9864 65.0672 53.9347C65.0672 53.883 65.0672 53.8312 65.0672 53.7794C65.0672 53.7277 65.0672 53.6758 65.0672 53.624C65.0672 53.5721 65.0672 53.5202 65.0672 53.4683C65.0672 53.4163 65.0672 53.3643 65.0672 53.3123C65.0672 53.2603 65.0672 53.2082 65.0672 53.1561C65.0672 53.104 65.0672 53.0519 65.0672 52.9997C65.0672 52.9475 65.0672 52.8953 65.0672 52.8431C65.0672 52.7908 65.0672 52.7385 65.0672 52.6862C65.0672 52.6339 65.0672 52.5815 65.0672 52.5291C65.0672 52.4767 65.0672 52.4242 65.0672 52.3717C65.0672 52.3192 65.0672 52.2667 65.0672 52.2142C65.0672 52.1616 65.0672 52.109 65.0672 52.0564C65.0672 52.0037 65.0672 51.9511 65.0672 51.8984C65.0672 51.8457 65.0672 51.7929 65.0672 51.7402C65.0672 51.6874 65.0672 51.6346 65.0672 51.5817C65.0672 51.5289 65.0672 51.476 65.0672 51.4231C65.0672 51.3701 65.0672 51.3172 65.0672 51.2642C65.0672 51.2112 65.0672 51.1582 65.0672 51.1051C65.0672 51.0521 65.0672 50.999 65.0672 50.9459C65.0672 50.8927 65.0672 50.8396 65.0672 50.7864C65.0672 50.7332 65.0672 50.68 65.0672 50.6267C65.0672 50.5734 65.0672 50.5201 65.0672 50.4668C65.0672 50.4135 65.0672 50.3601 65.0672 50.3068C65.0672 50.2534 65.0672 50.1999 65.0672 50.1465C65.0672 50.093 65.0672 50.0396 65.0672 49.986C65.0672 49.9325 65.0672 49.879 65.0672 49.8254C65.0672 49.7718 65.0672 49.7182 65.0672 49.6646C65.0672 49.6109 65.0672 49.5572 65.0672 49.5035C65.0672 49.4498 65.0672 49.3961 65.0672 49.3423C65.0672 49.2886 65.0672 49.2348 65.0672 49.181C65.0672 49.1271 65.0672 49.0733 65.0672 49.0194C65.0672 48.9655 65.0672 48.9116 65.0672 48.8577C65.0672 48.8037 65.0672 48.7498 65.0672 48.6958C65.0672 48.6418 65.0672 48.5878 65.0672 48.5337C65.0672 48.4797 65.0672 48.4256 65.0672 48.3715C65.0672 48.3174 65.0672 48.2632 65.0672 48.2091C65.0672 48.1549 65.0672 48.1007 65.0672 48.0465C65.0672 47.9923 65.0672 47.9381 65.0672 47.8838C65.0672 47.8295 65.0672 47.7752 65.0672 47.7209C65.0672 47.6666 65.0672 47.6122 65.0672 47.5579C65.0672 47.5035 65.0672 47.4491 65.0672 47.3947C65.0672 47.3402 65.0672 47.2858 65.0672 47.2313C65.0672 47.1769 65.0672 47.1224 65.0672 47.0678C65.0672 47.0133 65.0672 46.9588 65.0672 46.9042C65.0672 46.8496 65.0672 46.795 65.0672 46.7404C65.0672 46.6858 65.0672 46.6312 65.0672 46.5765C65.0672 46.5218 65.0672 46.4671 65.0672 46.4124C65.0672 46.3577 65.0672 46.303 65.0672 46.2482C65.0672 46.1935 65.0672 46.1387 65.0672 46.0839C65.0672 46.0291 65.0672 45.9743 65.0672 45.9194C65.0672 45.8646 65.0672 45.8097 65.0672 45.7548C65.0672 45.7 65.0672 45.645 65.0672 45.5901C65.0672 45.5352 65.0672 45.4802 65.0672 45.4253C65.0672 45.3703 65.0672 45.3153 65.0672 45.2603C65.0672 45.2053 65.0672 45.1503 65.0672 45.0952C65.0672 45.0402 65.0672 44.9851 65.0672 44.93C65.0672 44.8749 65.0672 44.8198 65.0672 44.7647C65.0672 44.7096 65.0672 44.6544 65.0672 44.5992C65.0672 44.5441 65.0672 44.4889 65.0672 44.4337C65.0672 44.3785 65.0672 44.3233 65.0672 44.2681C65.0672 44.2128 65.0672 44.1576 65.0672 44.1023C65.0672 44.047 65.0672 43.9917 65.0672 43.9364C65.0672 43.8811 65.0672 43.8258 65.0672 43.7705C65.0672 43.7151 65.0672 43.6598 65.0672 43.6044C65.0672 43.549 65.0672 43.4936 65.0672 43.4382C65.0672 43.3828 65.0672 43.3274 65.0672 43.272C65.0672 43.2166 65.0672 43.1611 65.0672 43.1056C65.0672 43.0502 65.0672 42.9947 65.0672 42.9392C65.0672 42.8837 65.0672 42.8282 65.0672 42.7727C65.0672 42.7172 65.0672 42.6616 65.0672 42.6061C65.0672 42.5505 65.0672 42.495 65.0672 42.4394C65.0672 42.3838 65.0672 42.3282 65.0672 42.2726C65.0672 42.217 65.0672 42.1614 65.0672 42.1058C65.0672 42.0502 65.0672 41.9945 65.0672 41.9389C65.0672 41.8832 65.0672 41.8275 65.0672 41.7719C65.0672 41.7162 65.0672 41.6605 65.0672 41.6048C65.0672 41.5491 65.0672 41.4934 65.0672 41.4377C65.0672 41.382 65.0672 41.3262 65.0672 41.2705C65.0672 41.2147 65.0672 41.159 65.0672 41.1032C65.0672 41.0475 65.0672 40.9917 65.0672 40.9359C65.0672 40.8801 65.0672 40.8243 65.0672 40.7685C65.0672 40.7127 65.0672 40.6569 65.0672 40.6011C65.0672 40.5453 65.0672 40.4894 65.0672 40.4336C65.0672 40.3778 65.0672 40.3219 65.0672 40.2661C65.0672 40.2102 65.0672 40.1543 65.0672 40.0985C65.0672 40.0426 65.0672 39.9867 65.0672 39.9308C65.0672 39.8749 65.0672 39.819 65.0672 39.7631C65.0672 39.7072 65.0672 39.6513 65.0672 39.5954C65.0672 39.5395 65.0672 39.4836 65.0672 39.4277C65.0672 39.3717 65.0672 39.3158 65.0672 39.2599C65.0672 39.2039 65.0672 39.148 65.0672 39.092C65.0672 39.0361 65.0672 38.9801 65.0672 38.9242C65.0672 38.8682 65.0672 38.8122 65.0672 38.7563C65.0672 38.7003 65.0672 38.6443 65.0672 38.5883C65.0672 38.5324 65.0672 38.4764 65.0672 38.4204C65.0672 38.3644 65.0672 38.3084 65.0672 38.2524C65.0672 38.1964 65.0672 38.1404 65.0672 38.0844C65.0672 38.0284 65.0672 37.9724 65.0672 37.9164C65.0672 37.8604 65.0672 37.8044 65.0672 37.7484C65.0672 37.6924 65.0672 37.6364 65.0672 37.5804C65.0672 37.5243 65.0672 37.4683 65.0672 37.4123C65.0672 37.3563 65.0672 37.3003 65.0672 37.2443C65.0672 37.1882 65.0672 37.1322 65.0672 37.0762C65.0672 37.0202 65.0672 36.9641 65.0672 36.9081C65.0672 36.8521 65.0672 36.7961 65.0672 36.74C65.0672 36.684 65.0672 36.628 65.0672 36.572C65.0672 36.5159 65.0672 36.4599 65.0672 36.4039C65.0672 36.3479 65.0672 36.2919 65.0672 36.2358C65.0672 36.1798 65.0672 36.1238 65.0672 36.0678C65.0672 36.0118 65.0672 35.9558 65.0672 35.8997C65.0672 35.8437 65.0672 35.7877 65.0672 35.7317C65.0672 35.6757 65.0672 35.6197 65.0672 35.5637C65.0672 35.5077 65.0672 35.4517 65.0672 35.3957C65.0672 35.3397 65.0672 35.2837 65.0672 35.2277C65.0672 35.1717 65.0672 35.1157 65.0672 35.0598C65.0672 35.0038 65.0672 34.9478 65.0672 34.8918C65.0672 34.8359 65.0672 34.7799 65.0672 34.7239C65.0672 34.668 65.0672 34.612 65.0672 34.556C65.0672 34.5001 65.0672 34.4441 65.0672 34.3882C65.0672 34.3323 65.0672 34.2763 65.0672 34.2204C65.0672 34.1645 65.0672 34.1085 65.0672 34.0526C65.0672 33.9967 65.0672 33.9408 65.0672 33.8849C65.0672 33.829 65.0672 33.7731 65.0672 33.7172C65.0672 33.6613 65.0672 33.6054 65.0672 33.5495C65.0672 33.4937 65.0672 33.4378 65.0672 33.3819C65.0672 33.3261 65.0672 33.2702 65.0672 33.2144C65.0672 33.1585 65.0672 33.1027 65.0672 33.0469C65.0672 32.991 65.0672 32.9352 65.0672 32.8794C65.0672 32.8236 65.0672 32.7678 65.0672 32.712C65.0672 32.6562 65.0672 32.6004 65.0672 32.5447C65.0672 32.4889 65.0672 32.4331 65.0672 32.3774C65.0672 32.3216 65.0672 32.2659 65.0672 32.2102C65.0672 32.1544 65.0672 32.0987 65.0672 32.043C65.0672 31.9873 65.0672 31.9316 65.0672 31.8759C65.0672 31.8202 65.0672 31.7646 65.0672 31.7089C65.0672 31.6532 65.0672 31.5976 65.0672 31.542C65.0672 31.4863 65.0672 31.4307 65.0672 31.3751C65.0672 31.3195 65.0672 31.2639 65.0672 31.2083C65.0672 31.1527 65.0672 31.0971 65.0672 31.0416C65.0672 30.986 65.0672 30.9305 65.0672 30.8749C65.0672 30.8194 65.0672 30.7639 65.0672 30.7084C65.0672 30.6529 65.0672 30.5974 65.0672 30.5419C65.0672 30.4864 65.0672 30.431 65.0672 30.3755C65.0672 30.3201 65.0672 30.2647 65.0672 30.2093C65.0672 30.1538 65.0672 30.0984 65.0672 30.0431C65.0672 29.9877 65.0672 29.9323 65.0672 29.877C65.0672 29.8216 65.0672 29.7663 65.0672 29.711C65.0672 29.6556 65.0672 29.6003 65.0672 29.5451C65.0672 29.4898 65.0672 29.4345 65.0672 29.3793C65.0672 29.324 65.0672 29.2688 65.0672 29.2136C65.0672 29.1584 65.0672 29.1032 65.0672 29.048C65.0672 28.9928 65.0672 28.9377 65.0672 28.8825C65.0672 28.8274 65.0672 28.7723 65.0672 28.7172C65.0672 28.6621 65.0672 28.607 65.0672 28.5519C65.0672 28.4968 65.0672 28.4418 65.0672 28.3868C65.0672 28.3317 65.0672 28.2767 65.0672 28.2218C65.0672 28.1668 65.0672 28.1118 65.0672 28.0569C65.0672 28.0019 65.0672 27.947 65.0672 27.8921C65.0672 27.8372 65.0672 27.7823 65.0672 27.7275C65.0672 27.6726 65.0672 27.6178 65.0672 27.563C65.0672 27.5081 65.0672 27.4533 65.0672 27.3986C65.0672 27.3438 65.0672 27.289 65.0672 27.2343C65.0672 27.1796 65.0672 27.1249 65.0672 27.0702C65.0672 27.0155 65.0672 26.9609 65.0672 26.9062C65.0672 26.8516 65.0672 26.797 65.0672 26.7424C65.0672 26.6878 65.0672 26.6333 65.0672 26.5787C65.0672 26.5242 65.0672 26.4697 65.0672 26.4152C65.0672 26.3607 65.0672 26.3062 65.0672 26.2518C65.0672 26.1973 65.0672 26.1429 65.0672 26.0885C65.0672 26.0341 65.0672 25.9798 65.0672 25.9254C65.0672 25.8711 65.0672 25.8168 65.0672 25.7625C65.0672 25.7082 65.0672 25.6539 65.0672 25.5997C65.0672 25.5455 65.0672 25.4913 65.0672 25.4371C65.0672 25.3829 65.0672 25.3288 65.0672 25.2746C65.0672 25.2205 65.0672 25.1664 65.0672 25.1123C65.0672 25.0583 65.0672 25.0042 65.0672 24.9502C65.0672 24.8962 65.0672 24.8422 65.0672 24.7882C65.0672 24.7343 65.0672 24.6803 65.0672 24.6264C65.0672 24.5725 65.0672 24.5187 65.0672 24.4648C65.0672 24.411 65.0672 24.3572 65.0672 24.3034C65.0672 24.2496 65.0672 24.1959 65.0672 24.1421C65.0672 24.0884 65.0672 24.0347 65.0672 23.981C65.0672 23.9274 65.0672 23.8738 65.0672 23.8201C65.0672 23.7665 65.0672 23.713 65.0672 23.6594C65.0672 23.6059 65.0672 23.5524 65.0672 23.4989C65.0672 23.4454 65.0672 23.392 65.0672 23.3386C65.0672 23.2852 65.0672 23.2318 65.0672 23.1784C65.0672 23.1251 65.0672 23.0718 65.0672 23.0185C65.0672 22.9652 65.0672 22.912 65.0672 22.8587C65.0672 22.8055 65.0672 22.7523 65.0672 22.6992C65.0672 22.646 65.0672 22.5929 65.0672 22.5398C65.0672 22.4868 65.0672 22.4337 65.0672 22.3807C65.0672 22.3277 65.0672 22.2747 65.0672 22.2218C65.0672 22.1688 65.0672 22.1159 65.0672 22.063C65.0672 22.0102 65.0672 21.9573 65.0672 21.9045C65.0672 21.8517 65.0672 21.799 65.0672 21.7462C65.0672 21.6935 65.0672 21.6408 65.0672 21.5881C65.0672 21.5355 65.0672 21.4829 65.0672 21.4303C65.0672 21.3777 65.0672 21.3251 65.0672 21.2726C65.0672 21.2201 65.0672 21.1676 65.0672 21.1152C65.0672 21.0628 65.0672 21.0104 65.0672 20.958C65.0672 20.9056 65.0672 20.8533 65.0672 20.801C65.0672 20.7488 65.0672 20.6965 65.0672 20.6443C65.0672 20.5921 65.0672 20.5399 65.0672 20.4878C65.0672 20.4357 65.0672 20.3836 65.0672 20.3315C65.0672 20.2795 65.0672 20.2275 65.0672 20.1755C65.0672 20.1235 65.0672 20.0716 65.0672 20.0197C65.0672 19.9678 65.0672 19.916 65.0672 19.8642C65.0672 19.8124 65.0672 19.7606 65.0672 19.7089C65.0672 19.6571 65.0672 19.6054 65.0672 19.5538C65.0672 19.5022 65.0672 19.4506 65.0672 19.399C65.0672 19.3474 65.0672 19.2959 65.0672 19.2444C65.0672 19.193 65.0672 19.1415 65.0672 19.0901C65.0672 19.0387 65.0672 18.9874 65.0672 18.9361C65.0672 18.8848 65.0672 18.8335 65.0672 18.7823C65.0672 18.7311 65.0672 18.6799 65.0672 18.6288C65.0672 18.5777 65.0672 18.5266 65.0672 18.4755C65.0672 18.4245 65.0672 18.3735 65.0672 18.3225C65.0672 18.2716 65.0672 18.2207 65.0672 18.1698C65.0672 18.1189 65.0672 18.0681 65.0672 18.0174C65.0672 17.9666 65.0672 17.9159 65.0672 17.8652C65.0672 17.8145 65.0672 17.7639 65.0672 17.7133C65.0672 17.6627 65.0672 17.6121 65.0672 17.5616C65.0672 17.5111 65.0672 17.4607 65.0672 17.4103C65.0672 17.3599 65.0672 17.3095 65.0672 17.2592C65.0672 17.2089 65.0672 17.1587 65.0672 17.1084C65.0672 17.0582 65.0672 17.0081 65.0672 16.9579C65.0672 16.9078 65.0672 16.8578 65.0672 16.8077C65.0672 16.7577 65.0672 16.7078 65.0672 16.6578C65.0672 16.6079 65.0672 16.558 65.0672 16.5082C65.0672 16.4584 65.0672 16.4086 65.0672 16.3589C65.0672 16.3092 65.0672 16.2595 65.0672 16.2099C65.0672 16.1603 65.0672 16.1107 65.0672 16.0612C65.0672 16.0116 65.0672 15.9622 65.0672 15.9127C65.0672 15.8633 65.0672 15.814 65.0672 15.7646C65.0672 15.7153 65.0672 15.6661 65.0672 15.6168C65.0672 15.5676 65.0672 15.5185 65.0672 15.4694C65.0672 15.4202 65.0672 15.3712 65.0672 15.3222C65.0672 15.2732 65.0672 15.2242 65.0672 15.1753C65.0672 15.1264 65.0672 15.0776 65.0672 15.0288H64.0672ZM64.9675 79.2995L71.684 70.3211L70.8832 69.7221L64.1668 78.7005L64.9675 79.2995ZM70.8832 70.3211L77.5996 79.2995L78.4004 78.7005L71.684 69.7221L70.8832 70.3211ZM71.7836 70.0216V18.3957H70.7836V70.0216H71.7836ZM34.903 7.11151H42.1791V6.11151H34.903V7.11151ZM41.6791 6.61151V7.97842H42.6791V6.61151H41.6791ZM44.1791 10.4784H46.3358V9.47842H44.1791V10.4784ZM45.5383 18.3934L48.5599 16.8786L48.1118 15.9847L45.0901 17.4994L45.5383 18.3934ZM48.5599 16.8786L50.4621 15.9251L50.014 15.0311L48.1118 15.9847L48.5599 16.8786ZM47.8358 11.9784V16.4317H48.8358V11.9784H47.8358ZM51.8065 15.9251L52.0297 16.0369L52.4778 15.1429L52.2547 15.0311L51.8065 15.9251ZM52.0297 16.0369L56.7304 18.3934L57.1785 17.4994L52.4778 15.1429L52.0297 16.0369ZM52.2537 15.5899C52.7537 15.5877 52.7537 15.5878 52.7537 15.5878C52.7537 15.5878 52.7537 15.5878 52.7537 15.5878C52.7537 15.5877 52.7537 15.5875 52.7537 15.5872C52.7537 15.5866 52.7537 15.5856 52.7537 15.5841C52.7537 15.5812 52.7537 15.5765 52.7537 15.5701C52.7538 15.5573 52.7539 15.5377 52.7542 15.5117C52.7547 15.4597 52.756 15.3822 52.7587 15.2824C52.7643 15.0827 52.7759 14.7941 52.8003 14.4423C52.8492 13.7373 52.9489 12.785 53.1511 11.7884C53.3539 10.7886 53.656 9.76475 54.1005 8.90609C54.5464 8.04475 55.1124 7.39349 55.8219 7.06531L55.402 6.15771C54.4157 6.61394 53.7141 7.47718 53.2124 8.44637C52.7093 9.41824 52.3838 10.541 52.171 11.5896C51.9576 12.6416 51.8536 13.6397 51.8027 14.3731C51.7772 14.7404 51.765 15.043 51.7591 15.2546C51.7562 15.3604 51.7548 15.4437 51.7542 15.501C51.7539 15.5297 51.7538 15.5519 51.7537 15.5672C51.7537 15.5748 51.7537 15.5808 51.7537 15.585C51.7537 15.5871 51.7537 15.5887 51.7537 15.5899C51.7537 15.5905 51.7537 15.591 51.7537 15.5914C51.7537 15.5916 51.7537 15.5918 51.7537 15.5919C51.7537 15.592 51.7537 15.5922 52.2537 15.5899ZM55.8219 7.06531C57.866 6.11972 59.7921 6.61966 61.2537 7.39838C61.9834 7.78713 62.5833 8.23905 63.0012 8.59485C63.2096 8.77228 63.3713 8.92455 63.4798 9.03119C63.5339 9.08448 63.5747 9.12627 63.6013 9.15399C63.6145 9.16784 63.6242 9.17817 63.6303 9.18465C63.6333 9.18788 63.6354 9.19016 63.6366 9.19143C63.6371 9.19207 63.6375 9.19245 63.6376 9.19258C63.6377 9.19264 63.6377 9.19264 63.6376 9.19258C63.6376 9.19255 63.6375 9.19245 63.6375 9.19243C63.6374 9.19232 63.6373 9.19219 64.0075 8.85612C64.3777 8.52004 64.3775 8.51988 64.3774 8.5197C64.3773 8.51962 64.3771 8.51942 64.377 8.51926C64.3767 8.51893 64.3763 8.51854 64.3759 8.51808C64.375 8.51717 64.374 8.51599 64.3727 8.51456C64.37 8.5117 64.3664 8.50781 64.3619 8.50295C64.3528 8.49322 64.34 8.47957 64.3235 8.46232C64.2904 8.42783 64.2427 8.37891 64.181 8.31824C64.0577 8.19695 63.8783 8.02822 63.6494 7.8334C63.1929 7.44471 62.5334 6.94713 61.7239 6.51582C60.1071 5.65443 57.8354 5.03207 55.402 6.15771L55.8219 7.06531ZM64.0075 8.85612C64.3202 9.2462 64.3202 9.24625 64.3201 9.24629C64.3201 9.24629 64.3201 9.24631 64.3201 9.2463C64.3201 9.24629 64.3202 9.24622 64.3204 9.2461C64.3207 9.24586 64.3212 9.24541 64.3221 9.24476C64.3237 9.24346 64.3263 9.24136 64.33 9.23847C64.3373 9.23269 64.3486 9.2238 64.3637 9.21202C64.394 9.18844 64.4395 9.15332 64.499 9.10847C64.618 9.01875 64.7925 8.89031 65.0116 8.73771C65.4505 8.43199 66.0646 8.0319 66.7671 7.6524C67.4713 7.27197 68.2527 6.91861 69.0274 6.69895C69.8063 6.47814 70.544 6.40233 71.1782 6.53912L71.389 5.5616C70.535 5.37738 69.6191 5.49179 68.7547 5.73687C67.8861 5.98311 67.0345 6.37131 66.2918 6.77257C65.5473 7.17476 64.9004 7.59649 64.44 7.91716C64.2095 8.07776 64.0248 8.21365 63.897 8.30997C63.8331 8.35815 63.7834 8.39647 63.7492 8.42309C63.7321 8.4364 63.7189 8.44679 63.7098 8.45402C63.7052 8.45764 63.7017 8.46046 63.6991 8.46248C63.6979 8.46348 63.6969 8.46428 63.6961 8.46488C63.6957 8.46517 63.6954 8.46542 63.6952 8.46561C63.6951 8.46571 63.695 8.46581 63.6949 8.46586C63.6948 8.46595 63.6947 8.46603 64.0075 8.85612ZM71.5077 18.8427L76.545 16.3175L76.0968 15.4235L71.0595 17.9487L71.5077 18.8427ZM71.1782 6.53912C73.9764 7.1427 75.1506 9.35945 75.6221 11.5631C75.8568 12.6604 75.9081 13.7242 75.8996 14.5175C75.8954 14.913 75.8764 15.2384 75.8585 15.4636C75.8496 15.5761 75.841 15.6633 75.8348 15.7216C75.8317 15.7507 75.8292 15.7725 75.8275 15.7866C75.8266 15.7937 75.826 15.7988 75.8256 15.8019C75.8254 15.8034 75.8253 15.8045 75.8252 15.805C75.8252 15.8053 75.8251 15.8055 75.8251 15.8055C75.8251 15.8055 75.8251 15.8054 75.8251 15.8054C75.8252 15.8053 75.8252 15.8052 76.3209 15.8705C76.8166 15.9358 76.8166 15.9356 76.8167 15.9354C76.8167 15.9353 76.8167 15.935 76.8167 15.9347C76.8168 15.9342 76.8169 15.9336 76.817 15.9329C76.8172 15.9314 76.8175 15.9293 76.8178 15.9268C76.8184 15.9217 76.8193 15.9146 76.8204 15.9056C76.8225 15.8875 76.8255 15.8615 76.8291 15.8281C76.8363 15.7612 76.8457 15.6648 76.8554 15.5425C76.8748 15.298 76.8951 14.9496 76.8996 14.5282C76.9086 13.6877 76.8549 12.5455 76.5999 11.3538C76.0919 8.97937 74.7475 6.28604 71.389 5.5616L71.1782 6.53912ZM64.0075 8.85612C64.5065 8.88681 64.5065 8.88683 64.5065 8.88684C64.5065 8.88684 64.5065 8.88684 64.5065 8.88683C64.5065 8.88679 64.5065 8.88672 64.5065 8.88662C64.5065 8.88641 64.5066 8.88605 64.5066 8.88555C64.5067 8.88455 64.5068 8.88297 64.5069 8.88082C64.5072 8.87652 64.5076 8.86996 64.5082 8.86123C64.5093 8.84378 64.5111 8.81768 64.5135 8.78375C64.5182 8.71588 64.5256 8.61676 64.5356 8.49296C64.5558 8.24518 64.5868 7.89935 64.6305 7.50777C64.7186 6.7172 64.8552 5.76765 65.0493 5.06038L64.085 4.79574C63.8691 5.58253 63.7258 6.59701 63.6366 7.39695C63.5916 7.80062 63.5597 8.15667 63.5389 8.41196C63.5285 8.53968 63.5209 8.6424 63.5159 8.71347C63.5134 8.74902 63.5116 8.77667 63.5103 8.7956C63.5097 8.80507 63.5092 8.81235 63.5089 8.81736C63.5088 8.81986 63.5086 8.82179 63.5085 8.82314C63.5085 8.82381 63.5085 8.82434 63.5084 8.82472C63.5084 8.82491 63.5084 8.82507 63.5084 8.82518C63.5084 8.82524 63.5084 8.8253 63.5084 8.82533C63.5084 8.82538 63.5084 8.82542 64.0075 8.85612ZM65.0493 5.06038C65.2584 4.29866 65.6629 3.3484 66.0254 2.57212C66.2049 2.18762 66.3709 1.85242 66.492 1.6135C66.5525 1.49411 66.6017 1.39897 66.6356 1.33396C66.6525 1.30145 66.6656 1.2765 66.6744 1.25982C66.6789 1.25149 66.6822 1.24522 66.6843 1.24112C66.6854 1.23907 66.6862 1.23756 66.6867 1.23661C66.687 1.23613 66.6872 1.23579 66.6873 1.23559C66.6873 1.23549 66.6874 1.23542 66.6874 1.23539C66.6874 1.23538 66.6874 1.23538 66.6874 1.23537C66.6874 1.23539 66.6874 1.23541 66.2463 1C65.8052 0.764592 65.8051 0.764631 65.8051 0.764679C65.8051 0.764707 65.8051 0.764764 65.805 0.764819C65.805 0.76493 65.8049 0.765076 65.8048 0.765258C65.8046 0.765621 65.8043 0.766124 65.804 0.766767C65.8033 0.768052 65.8023 0.769894 65.8011 0.77228C65.7985 0.777053 65.7948 0.784006 65.7901 0.793047C65.7805 0.811127 65.7666 0.837562 65.7489 0.871611C65.7134 0.939698 65.6624 1.03829 65.6 1.16145C65.4753 1.40761 65.3043 1.7527 65.1193 2.14907C64.7525 2.93454 64.3175 3.9483 64.085 4.79574L65.0493 5.06038ZM36.5821 28.9964H52.2537V27.9964H36.5821V28.9964ZM37.7612 49.0887V62.7266H38.7612V49.0887H37.7612ZM37.7612 62.7266V79H38.7612V62.7266H37.7612ZM38.2612 63.2266H52.2537V62.2266H38.2612V63.2266ZM9.65672 30.4964C9.65672 29.668 10.3283 28.9964 11.1567 28.9964V27.9964C9.776 27.9964 8.65672 29.1157 8.65672 30.4964H9.65672ZM5 78.5C4.17157 78.5 3.5 77.8284 3.5 77H2.5C2.5 78.3807 3.61929 79.5 5 79.5V78.5ZM78.5 16.907C78.5 15.6727 77.2003 14.8703 76.0968 15.4235L76.545 16.3175C76.9835 16.0976 77.5 16.4165 77.5 16.907H78.5ZM58.5215 17.5001C58.0989 17.712 57.602 17.7117 57.1785 17.4994L56.7304 18.3934C57.4351 18.7466 58.2642 18.7477 58.9697 18.3941L58.5215 17.5001ZM37.0293 15.9251C37.4523 15.713 37.9507 15.713 38.3737 15.9251L38.8218 15.0311C38.1168 14.6776 37.2862 14.6776 36.5811 15.0311L37.0293 15.9251ZM29.8647 18.3934C30.5698 18.7468 31.4003 18.7468 32.1054 18.3934L31.6573 17.4994C31.2342 17.7115 30.7359 17.7115 30.3129 17.4994L29.8647 18.3934ZM27.389 16.0337C25.7266 15.2003 23.7687 16.409 23.7687 18.2686H24.7687C24.7687 17.1528 25.9434 16.4276 26.9409 16.9276L27.389 16.0337ZM37.6508 48.524C37.7237 48.7033 37.7612 48.8951 37.7612 49.0887H38.7612C38.7612 48.766 38.6987 48.4464 38.5773 48.1475L37.6508 48.524ZM30.7463 9.47842C29.3656 9.47842 28.2463 10.5977 28.2463 11.9784H29.2463C29.2463 11.15 29.9178 10.4784 30.7463 10.4784V9.47842ZM44.3582 3.56115C44.3582 2.18044 43.2389 1.06115 41.8582 1.06115V2.06115C42.6866 2.06115 43.3582 2.73272 43.3582 3.56115H44.3582ZM43.3582 4.93241C43.3582 5.58361 42.8303 6.11151 42.1791 6.11151V7.11151C43.3826 7.11151 44.3582 6.13589 44.3582 4.93241H43.3582ZM46.3358 10.4784C47.1642 10.4784 47.8358 11.15 47.8358 11.9784H48.8358C48.8358 10.5977 47.7165 9.47842 46.3358 9.47842V10.4784ZM50.4621 15.9251C50.8852 15.713 51.3835 15.713 51.8065 15.9251L52.2547 15.0311C51.5496 14.6776 50.7191 14.6776 50.014 15.0311L50.4621 15.9251ZM32.7239 4.93241C32.7239 6.13589 33.6995 7.11151 34.903 7.11151V6.11151C34.2518 6.11151 33.7239 5.58361 33.7239 4.93241H32.7239ZM34.403 7.97842C34.403 8.80684 33.7314 9.47842 32.903 9.47842V10.4784C34.2837 10.4784 35.403 9.35913 35.403 7.97842H34.403ZM41.6791 7.97842C41.6791 9.35913 42.7984 10.4784 44.1791 10.4784V9.47842C43.3507 9.47842 42.6791 8.80684 42.6791 7.97842H41.6791ZM43.2976 18.3934C44.0026 18.7468 44.8332 18.7468 45.5383 18.3934L45.0901 17.4994C44.6671 17.7115 44.1688 17.7115 43.7457 17.4994L43.2976 18.3934ZM30.1045 28.9964C30.9329 28.9964 31.6045 29.668 31.6045 30.4964H32.6045C32.6045 29.1157 31.4852 27.9964 30.1045 27.9964V28.9964ZM33.7239 3.56115C33.7239 2.73272 34.3955 2.06115 35.2239 2.06115V1.06115C33.8432 1.06115 32.7239 2.18044 32.7239 3.56115H33.7239Z"
     fill="black"
     id="path2"
     style="fill:#803820;fill-opacity:1" />
</svg>
