<?xml version="1.0" encoding="UTF-8" standalone="no"?>
<!-- Created with Inkscape (http://www.inkscape.org/) -->

<svg
   width="108.72889mm"
   height="18.724663mm"
   viewBox="0 0 108.72889 18.724663"
   version="1.1"
   id="svg1"
   xml:space="preserve"
   inkscape:export-filename="logo.png"
   inkscape:export-xdpi="96"
   inkscape:export-ydpi="96"
   inkscape:version="1.4 (1:1.4+202410161351+e7c3feb100)"
   sodipodi:docname="logo.svg"
   xmlns:inkscape="http://www.inkscape.org/namespaces/inkscape"
   xmlns:sodipodi="http://sodipodi.sourceforge.net/DTD/sodipodi-0.dtd"
   xmlns="http://www.w3.org/2000/svg"
   xmlns:svg="http://www.w3.org/2000/svg"><sodipodi:namedview
     id="namedview1"
     pagecolor="#ffffff"
     bordercolor="#000000"
     borderopacity="0.25"
     inkscape:showpageshadow="2"
     inkscape:pageopacity="0.0"
     inkscape:pagecheckerboard="0"
     inkscape:deskcolor="#d1d1d1"
     inkscape:document-units="mm"
     inkscape:zoom="2.0899411"
     inkscape:cx="220.81962"
     inkscape:cy="56.22168"
     inkscape:window-width="2560"
     inkscape:window-height="1403"
     inkscape:window-x="0"
     inkscape:window-y="0"
     inkscape:window-maximized="1"
     inkscape:current-layer="layer1" /><defs
     id="defs1" /><g
     inkscape:label="Layer 1"
     inkscape:groupmode="layer"
     id="layer1"
     transform="translate(-11.444894,-90.207877)"><path
       style="fill:#f39200;fill-opacity:1;stroke:#f39200;stroke-width:0.1;stroke-dasharray:none;stroke-opacity:1"
       d="m 43.555922,97.313182 c 0,-0.555999 0.258396,-0.948448 1.066428,-1.619653 0.987415,-0.8202 1.099284,-0.856089 1.509959,-0.484432 0.418879,0.379071 0.435142,0.339747 0.292654,-0.707278 -0.200007,-1.469608 0.407192,-2.235555 2.679294,-3.379768 0.947495,-0.477146 2.125168,-1.220901 2.617057,-1.652782 l 0.894344,-0.785237 0.969871,0.876211 c 0.533432,0.481936 1.783802,1.303932 2.778601,1.826693 2.382621,1.252027 2.836935,2.052632 2.137313,3.766452 -0.197258,0.48322 -0.180945,0.486607 0.426608,0.0885 0.612343,-0.401229 0.664028,-0.387072 1.685922,0.46177 0.796847,0.661913 1.054204,1.054832 1.054204,1.609499 0,1.042274 -0.437401,0.908208 -0.912739,-0.279762 -0.536536,-1.340917 -1.169113,-1.67828 -2.059949,-1.098563 -0.371202,0.241562 -0.821755,0.61751 -1.001215,0.835443 -0.275597,0.334666 -0.299451,0.259412 -0.153496,-0.484217 0.433647,-2.209367 -0.09569,-3.36215 -2.161573,-4.707582 -0.760971,-0.495597 -1.678543,-1.17286 -2.039049,-1.505055 l -0.655477,-0.604002 -2.199927,1.569178 c -1.209961,0.863053 -2.365771,1.822304 -2.568476,2.131656 -0.438311,0.668956 -0.527912,1.858348 -0.244182,3.241581 l 0.206402,1.006247 -0.545663,-0.693384 c -1.187442,-1.508892 -2.188748,-1.379327 -2.890282,0.373969 -0.452354,1.130538 -0.886629,1.235574 -0.886629,0.214492 z"
       id="path43"
       inkscape:export-filename="../../public/small_logo.png"
       inkscape:export-xdpi="96"
       inkscape:export-ydpi="96" /><path
       style="fill:#f39200;fill-opacity:1;stroke:#f39200;stroke-width:0.1;stroke-dasharray:none;stroke-opacity:1"
       d="m 17.161664,98.031606 c -3.447248,-0.324599 -3.33918,-0.438072 0.432575,-0.454197 1.83973,-0.0065 5.914991,-0.257334 9.056129,-0.554378 7.134879,-0.674706 11.892953,-0.589589 14.389956,0.257406 2.574864,0.873407 2.477827,1.092636 -0.377338,0.852421 -3.025081,-0.254492 -8.97532,-0.271204 -15.974007,-0.04515 -2.836327,0.09171 -6.223619,0.06645 -7.527315,-0.05644 z"
       id="path42" /><text
       xml:space="preserve"
       style="font-size:10.9361px;fill:#ffffff;fill-opacity:1;stroke:none;stroke-width:0.1;stroke-dasharray:none;stroke-opacity:1"
       x="14.506995"
       y="108.68479"
       id="text45"><tspan
         sodipodi:role="line"
         id="tspan45"
         style="font-style:normal;font-variant:normal;font-weight:normal;font-stretch:normal;font-size:10.9361px;font-family:'Calisto MT';-inkscape-font-specification:'Calisto MT';fill:#ffffff;fill-opacity:1;stroke:none;stroke-width:0.1;stroke-dasharray:none;stroke-opacity:1"
         x="14.506995"
         y="108.68479">TASTE OF</tspan></text><text
       xml:space="preserve"
       style="font-style:normal;font-variant:normal;font-weight:normal;font-stretch:normal;font-size:25.4px;font-family:'Calisto MT';-inkscape-font-specification:'Calisto MT';fill:#ffffff;fill-opacity:1;stroke:none;stroke-width:0.1;stroke-dasharray:none;stroke-opacity:1"
       x="64.85894"
       y="108.6841"
       id="text46"
       inkscape:export-filename="logo.png"
       inkscape:export-xdpi="96"
       inkscape:export-ydpi="96"><tspan
         sodipodi:role="line"
         id="tspan46"
         style="font-style:normal;font-variant:normal;font-weight:normal;font-stretch:normal;font-size:25.4px;font-family:'Cambria Math';-inkscape-font-specification:'Cambria Math';fill:#ffffff;fill-opacity:1;stroke:none;stroke-width:0.1"
         x="64.85894"
         y="108.6841">India</tspan></text></g></svg>
