<?xml version="1.0" encoding="UTF-8" standalone="no"?>
<!-- Created with Inkscape (http://www.inkscape.org/) -->

<svg
   width="108.72889mm"
   height="18.724663mm"
   viewBox="0 0 108.72889 18.724663"
   version="1.1"
   id="svg1"
   xml:space="preserve"
   inkscape:export-filename="logo.png"
   inkscape:export-xdpi="96"
   inkscape:export-ydpi="96"
   inkscape:version="1.3.2 (091e20e, 2023-11-25, custom)"
   sodipodi:docname="logo.svg"
   xmlns:inkscape="http://www.inkscape.org/namespaces/inkscape"
   xmlns:sodipodi="http://sodipodi.sourceforge.net/DTD/sodipodi-0.dtd"
   xmlns="http://www.w3.org/2000/svg"
   xmlns:svg="http://www.w3.org/2000/svg"><sodipodi:namedview
     id="namedview1"
     pagecolor="#ffffff"
     bordercolor="#000000"
     borderopacity="0.25"
     inkscape:showpageshadow="2"
     inkscape:pageopacity="0.0"
     inkscape:pagecheckerboard="0"
     inkscape:deskcolor="#d1d1d1"
     inkscape:document-units="mm"
     inkscape:zoom="2.0899411"
     inkscape:cx="220.81962"
     inkscape:cy="18.421572"
     inkscape:window-width="2560"
     inkscape:window-height="1369"
     inkscape:window-x="2728"
     inkscape:window-y="-8"
     inkscape:window-maximized="1"
     inkscape:current-layer="layer1" /><defs
     id="defs1" /><g
     inkscape:label="Layer 1"
     inkscape:groupmode="layer"
     id="layer1"
     transform="translate(-11.444894,-90.207877)"><path
       style="fill:#ffffff;fill-opacity:1;stroke:#ffffff;stroke-width:0.1;stroke-dasharray:none;stroke-opacity:1"
       d="m 41.879048,99.350748 c 0,-0.58479 0.271779,-0.99756 1.121642,-1.70351 1.038541,-0.86267 1.156204,-0.90042 1.588138,-0.50952 0.440561,0.3987 0.457674,0.35734 0.307803,-0.74389 -0.210359,-1.5457 0.428279,-2.3513 2.818012,-3.55475 0.996551,-0.50185 2.2352,-1.284117 2.752554,-1.738357 l 0.940644,-0.82589 1.020087,0.92158 c 0.561048,0.506877 1.876156,1.371437 2.922462,1.921257 2.505977,1.31685 2.98381,2.15891 2.247969,3.96146 -0.207474,0.50824 -0.190316,0.5118 0.448692,0.0931 0.644045,-0.422 0.69841,-0.40711 1.773206,0.48568 0.838105,0.69618 1.108791,1.10944 1.108791,1.69283 0,1.096262 -0.460053,0.955252 -0.960001,-0.29425 -0.56431,-1.41034 -1.229642,-1.76517 -2.166596,-1.15544 -0.390424,0.25407 -0.8643,0.64948 -1.053058,0.8787 -0.289859,0.35199 -0.314948,0.27284 -0.161437,-0.50929 0.456094,-2.32375 -0.100638,-3.53622 -2.273491,-4.95131 -0.800365,-0.52125 -1.765442,-1.23359 -2.144616,-1.58298 l -0.689408,-0.635267 -2.313829,1.650417 c -1.272605,0.90774 -2.48826,1.91665 -2.701455,2.24202 -0.46101,0.70359 -0.555242,1.95456 -0.256821,3.40941 l 0.217086,1.05834 -0.573915,-0.72928 c -1.24892,-1.58701 -2.302072,-1.45074 -3.039925,0.39333 -0.475775,1.189082 -0.932534,1.299582 -0.932534,0.2256 z"
       id="path43" /><path
       style="fill:#ffffff;fill-opacity:1;stroke:#ffffff;stroke-width:0.1;stroke-dasharray:none;stroke-opacity:1"
       d="m 14.118264,100.10637 c -3.625724,-0.341402 -3.512061,-0.460752 0.454972,-0.477722 1.934981,-0.008 6.221231,-0.27066 9.525,-0.58308 7.504274,-0.70964 12.508693,-0.62012 15.134978,0.27074 2.708172,0.918632 2.606111,1.149192 -0.396875,0.896552 -3.181702,-0.267682 -9.44001,-0.285252 -16.801041,-0.0472 -2.983177,0.0965 -6.545842,0.0698 -7.917034,-0.0593 z"
       id="path42" /><text
       xml:space="preserve"
       style="font-size:9.87778px;fill:#ffffff;fill-opacity:1;stroke:none;stroke-width:0.1;stroke-dasharray:none;stroke-opacity:1"
       x="11.601512"
       y="108.68479"
       id="text45"><tspan
         sodipodi:role="line"
         id="tspan45"
         style="font-style:normal;font-variant:normal;font-weight:normal;font-stretch:normal;font-size:9.87778px;font-family:'Calisto MT';-inkscape-font-specification:'Calisto MT';fill:#ffffff;fill-opacity:1;stroke:none;stroke-width:0.1;stroke-dasharray:none;stroke-opacity:1"
         x="11.601512"
         y="108.68479">NAMASTE</tspan></text><text
       xml:space="preserve"
       style="font-style:normal;font-variant:normal;font-weight:normal;font-stretch:normal;font-size:25.4px;font-family:'Calisto MT';-inkscape-font-specification:'Calisto MT';fill:#ffffff;fill-opacity:1;stroke:none;stroke-width:0.1;stroke-dasharray:none;stroke-opacity:1"
       x="64.85894"
       y="108.6841"
       id="text46"><tspan
         sodipodi:role="line"
         id="tspan46"
         style="font-style:normal;font-variant:normal;font-weight:normal;font-stretch:normal;font-size:25.4px;font-family:'Cambria Math';-inkscape-font-specification:'Cambria Math';stroke-width:0.1;stroke:none;fill:#ffffff;fill-opacity:1"
         x="64.85894"
         y="108.6841">India</tspan></text></g></svg>
