<?xml version="1.0" encoding="UTF-8" standalone="no"?>
<svg
   width="54"
   height="79"
   viewBox="0 0 54 79"
   fill="none"
   version="1.1"
   id="svg1"
   sodipodi:docname="menu.svg"
   inkscape:version="1.3.2 (091e20e, 2023-11-25, custom)"
   inkscape:export-filename="menu.png"
   inkscape:export-xdpi="96"
   inkscape:export-ydpi="96"
   xmlns:inkscape="http://www.inkscape.org/namespaces/inkscape"
   xmlns:sodipodi="http://sodipodi.sourceforge.net/DTD/sodipodi-0.dtd"
   xmlns="http://www.w3.org/2000/svg"
   xmlns:svg="http://www.w3.org/2000/svg">
  <defs
     id="defs1" />
  <sodipodi:namedview
     id="namedview1"
     pagecolor="#ffffff"
     bordercolor="#000000"
     borderopacity="0.25"
     inkscape:showpageshadow="2"
     inkscape:pageopacity="0.0"
     inkscape:pagecheckerboard="0"
     inkscape:deskcolor="#d1d1d1"
     inkscape:zoom="14.848101"
     inkscape:cx="26.973146"
     inkscape:cy="39.5"
     inkscape:window-width="2560"
     inkscape:window-height="1369"
     inkscape:window-x="2728"
     inkscape:window-y="-8"
     inkscape:window-maximized="1"
     inkscape:current-layer="svg1" />
  <path
     d="M0.5 12V76C0.5 77.1046 1.39543 78 2.5 78H51.5C52.6046 78 53.5 77.1046 53.5 76V14C53.5 12.8954 52.6046 12 51.5 12H47.5M0.5 12L45.0052 0.636962C46.2699 0.31406 47.5 1.26953 47.5 2.5748V12M0.5 12H47.5M36.5 51L22 36.5M22 36.5C13.6564 39.4448 10.6122 30.3453 13.3405 28.1179C13.4425 28.0346 13.5474 27.9502 13.6455 27.8623C17.2159 24.6634 24.9591 30.5817 22 36.5ZM18.5 51L32 37.5M40 29.5L32 37.5M32 37.5C32 37.5 31.0481 35.4207 31 34C30.877 30.37 36.5 26.5 36.5 26.5M32 37.5C32 37.5 34.4348 38.169 36 38C39.34 37.6393 43 33 43 33M15 59.5H39M19 65.5H35"
     stroke="black"
     stroke-linecap="round"
     stroke-linejoin="round"
     id="path1"
     style="stroke:#803820;stroke-opacity:1" />
</svg>
